<svg xmlns="http://www.w3.org/2000/svg" viewBox="0 0 512 415.84"><defs><style>.cls-1{fill:#fffd00;}</style></defs><title>tji-twitter-icon</title><g id="Layer_2" data-name="Layer 2"><g id="Layer_1-2" data-name="Layer 1"><path class="cls-1" d="M459.37,103.63c.33,4.55.33,9.1.33,13.65,0,138.72-105.59,298.56-298.56,298.56A296.51,296.51,0,0,1,0,368.73,218,218,0,0,0,25.34,370,210.15,210.15,0,0,0,155.61,325.2,105.13,105.13,0,0,1,57.5,252.43a132.94,132.94,0,0,0,19.82,1.62,111.09,111.09,0,0,0,27.61-3.57,105,105,0,0,1-84.14-103v-1.3a105.68,105.68,0,0,0,47.43,13.32A105.07,105.07,0,0,1,35.74,19.17,298.27,298.27,0,0,0,252.1,129a118.63,118.63,0,0,1-2.6-24A105,105,0,0,1,431.1,33.14,206.58,206.58,0,0,0,497.7,7.8a104.59,104.59,0,0,1-46.13,57.82A210.28,210.28,0,0,0,512,49.38a225.4,225.4,0,0,1-52.63,54.25Z"/></g></g></svg>