<svg xmlns="http://www.w3.org/2000/svg" height="309.773" width="487.587"><path d="M212.036 145.412h4.144v-25.423h-7.73v5.123h-4.051v-8.941h28.217v8.941h-4.052v-5.123h-7.728v25.423h4.145v3.633h-12.945v-3.633m26.731 0h4.1v-25.655h-4.1v-3.586h23.794v7.638h-4.052v-3.82h-10.988v10.571h11.64v3.816h-11.64v10.85h11.782v-3.958h4.05v7.777h-24.586v-3.633m30.692 0h3.073l8.475-12.99-8.335-12.665h-3.027v-3.586H281.1v3.586h-3.492l5.445 8.614c.514.698.84 1.302.84 1.302h.091s.281-.604.793-1.302l5.262-8.614h-3.399v-3.586h11.128v3.586h-3.073l-8.52 13.084 8.381 12.571h3.119v3.633H286.22v-3.633h3.444l-5.493-8.567c-.512-.745-.837-1.352-.837-1.352h-.094c-.046 0-.278.607-.746 1.352l-5.306 8.567h3.444v3.633H269.46v-3.633m53.503-11.036l-4.004-11.407c-.464-1.349-.558-2.514-.558-2.514h-.141s-.14 1.165-.557 2.514l-4.051 11.407zm-20.904 11.037h3.165l10.477-29.241h5.262l10.474 29.241h3.166v3.631h-11.406v-3.63h3.491l-2.56-7.314h-11.641l-2.562 7.313h3.54v3.631H302.06v-3.63m42.141-6.242v2.421c0 2.422 3.12 3.867 6.566 3.867 3.77 0 6.52-1.772 6.52-5.03 0-3.818-3.866-5.075-7.916-6.658-4.332-1.632-8.754-3.493-8.754-9.313 0-6.191 4.98-8.846 10.523-8.846 4.937 0 9.964 1.863 9.964 5.448v3.863h-4.33v-2.281c0-1.908-2.933-2.934-5.634-2.934-3.213 0-5.773 1.491-5.773 4.518 0 3.493 3.305 4.657 6.984 6.052 4.842 1.817 9.637 3.68 9.637 9.78 0 6.284-5.121 9.545-11.221 9.545-5.12 0-10.848-2.281-10.848-6.985v-3.447h4.282m-140.034 49.254h4.517v1.442c0 3.217 1.443 6.056 5.075 6.056 2.608 0 4.981-1.582 4.981-6.056v-19.645h-4.748v-3.586h13.084v3.586h-3.68v19.927c0 7.031-4.936 9.918-9.685 9.918-4.702 0-9.544-2.701-9.544-9.73v-1.912m32.643-18.205h-4.142v-3.585h12.943v3.585h-4.143v16.996c0 2.142.419 4.004 1.256 5.355 1.35 2.14 3.912 3.353 7.079 3.353 3.118 0 5.726-1.213 7.076-3.449.793-1.347 1.257-3.165 1.257-5.305v-16.95h-4.144v-3.585h12.897v3.585h-4.096v17.04c0 3.122-.84 5.962-2.282 8.01-2.235 3.165-6.24 4.797-10.708 4.797-4.658 0-8.568-1.77-10.803-4.796-1.537-2.095-2.19-4.846-2.19-8.01v-17.04m40.611 19.416v2.422c0 2.42 3.118 3.865 6.563 3.865 3.775 0 6.52-1.771 6.52-5.03 0-3.818-3.864-5.075-7.915-6.658-4.33-1.63-8.754-3.493-8.754-9.314 0-6.191 4.982-8.844 10.525-8.844 4.935 0 9.961 1.862 9.961 5.449v3.861h-4.329v-2.281c0-1.91-2.933-2.933-5.632-2.933-3.215 0-5.776 1.49-5.776 4.517 0 3.493 3.305 4.656 6.985 6.052 4.844 1.817 9.638 3.679 9.638 9.781 0 6.283-5.123 9.542-11.223 9.542-5.119 0-10.847-2.28-10.847-6.983v-3.446h4.284m31.48 6.239h4.143v-25.422h-7.73v5.122h-4.051v-8.94h28.218v8.94h-4.05v-5.122h-7.728v25.422h4.142v3.631h-12.944v-3.63m26.734-.001h4.098v-25.654h-4.098v-3.586h12.897v3.586h-4.144v25.654h4.144v3.631h-12.897v-3.63m36.413-29.799c3.959 0 12.525 1.441 12.525 6.518v4.003h-4.329v-2.561c0-2.886-4.981-3.955-8.008-3.955-7.03 0-12.2 5.17-12.2 12.616 0 7.775 5.305 13.317 12.479 13.317 2.326 0 8.193-.837 8.193-3.865v-2.56h4.332v4.003c0 4.84-8.243 6.473-12.804 6.473-9.873 0-16.997-7.59-16.997-17.18 0-9.639 7.309-16.81 16.809-16.81m20.353 29.799h4.099v-25.654h-4.099v-3.586h23.794v7.635h-4.051v-3.817h-10.99v10.57h11.642v3.817h-11.641v10.849h11.782v-3.958h4.05v7.775H392.4v-3.63m-186.884 48.394h4.099v-25.657h-4.099v-3.584h12.897v3.584h-4.142v25.657h4.142v3.633h-12.897v-3.633m20.12 0h4.097v-25.657h-4.097v-3.584h8.707l16.154 23.561c.562.932 1.119 2.373 1.119 2.373h.141s-.234-1.63-.234-2.653v-19.697h-4.191v-3.584h12.99v3.584h-4.142v29.29h-4.564l-16.156-23.56c-.605-.932-1.117-2.377-1.117-2.377h-.14s.233 1.632.186 2.655v19.649h4.236v3.633h-12.989v-3.633m41.354 0h4.1v-25.657h-4.1v-3.584h12.9v3.584h-4.143v25.657h4.142v3.633h-12.9v-3.633m26.638 0h4.144v-25.423h-7.728v5.123h-4.052v-8.941h28.216v8.94h-4.05v-5.122h-7.73v25.423h4.145v3.633h-12.945v-3.633m26.733 0h4.099v-25.657h-4.099v-3.584h12.899v3.584h-4.146v25.657h4.146v3.633H320.36v-3.633m39.068-11.034l-4.004-11.409c-.464-1.352-.557-2.514-.557-2.514h-.142s-.138 1.162-.558 2.514l-4.051 11.41zm-20.904 11.035h3.165l10.475-29.242h5.263l10.477 29.242h3.167v3.631h-11.41v-3.63h3.494l-2.563-7.312h-11.637l-2.564 7.311h3.538v3.631h-11.405v-3.63m42.052-.002h4.14v-25.423h-7.73v5.123h-4.049v-8.941h28.216v8.94h-4.05v-5.122h-7.73v25.423h4.146v3.633h-12.943v-3.633m26.731 0h4.098v-25.657h-4.098v-3.584h12.898v3.584h-4.142v25.657h4.142v3.633h-12.898v-3.633m21.421-25.657h-3.21v-3.584h11.733v3.584h-3.632l7.356 21.652c.373 1.168.561 2.562.561 2.562h.137s.186-1.394.559-2.562l7.359-21.652h-3.634v-3.584h11.734v3.584h-3.26l-10.384 29.29h-4.935l-10.384-29.29m34.277 25.657h4.099v-25.657h-4.099v-3.584H486.8v7.638h-4.051v-3.82h-10.99v10.57h11.64v3.82h-11.64v10.848h11.78v-3.958h4.051v7.776h-24.584v-3.633" fill="#295998"/><path d="M78.895 71.795c5.252-11.52 10.625-22.988 15.966-34.468.636-1.367 1.33-2.708 2.321-4.72 1.346 3 2.365 5.321 3.424 7.621 4.847 10.513 9.744 21.003 14.531 31.543.943 2.073 2.227 2.638 4.747 1.768a224942.01 224942.01 0 0 1-21.518-46.967c-1.002.385-2.015.72-3.044 1.007C88.17 43.139 81.198 58.3 74.19 73.549c2.49.899 3.741.36 4.705-1.754m41.92 7.005c-7.946.004-15.893.001-23.84.001v-.012H73.134c-1.265 0-2.615-.14-2.564 1.772.049 1.782 1.264 1.852 2.598 1.851 15.891-.016 31.787.01 47.68-.11.907-.006 2.464-1.087 2.578-1.842.264-1.741-1.342-1.66-2.61-1.66" fill="#d02125"/><path d="M95.322 27.58C88.169 43.137 81.199 58.304 74.19 73.548c2.49.901 3.74.363 4.703-1.752 5.254-11.52 10.627-22.99 15.969-34.47.636-1.365 1.328-2.706 2.32-4.72 1.348 3.002 2.364 5.322 3.425 7.622 4.846 10.513 9.744 21.003 14.53 31.541.943 2.076 2.227 2.639 4.746 1.768L98.365 26.573c-1 .383-2.012.718-3.043 1.007m1.653 51.223c7.947 0 15.894.001 23.84-.002 1.269-.002 2.875-.081 2.61 1.66-.114.755-1.67 1.835-2.577 1.843-15.893.119-31.789.093-47.68.11-1.334 0-2.55-.071-2.598-1.85-.05-1.916 1.299-1.773 2.563-1.773h23.842v.012" fill="#d02125"/><path d="M59.511 250.062c-9.79 1.031-18.381.427-25.763-1.803-7.385-2.228-13.57-5.836-18.548-10.819-4.985-4.98-8.76-11.12-11.337-18.421C1.286 211.72 0 203.52 0 194.415V83.89h34.007v33.749h23.96v30.143h-23.96v46.889c0 9.276 2.1 15.803 6.31 19.582 4.208 3.778 10.605 5.408 19.194 4.894v30.914m56.936 16.489c0 8.76-1.288 16.102-3.866 22.03-2.574 5.925-6.227 10.562-10.95 13.91-4.724 3.353-10.432 5.54-17.133 6.572-6.696 1.029-14.256.942-22.67-.257V278.66c6.869.684 12.02-.13 15.458-2.45 3.435-2.315 5.153-6.825 5.153-13.522V117.64h34.008v148.91m63.89-16.23h-34.006V117.64h34.006v132.68" fill="#295998"/><path d="M191.885 22.883a.708.708 0 0 0-.238-.194c-.406-.19-.994.022-1.439.247-7.736 3.93-16.821 3.67-24.857.78-4.343-1.563-8.446-3.787-12.67-5.683-5.777-2.598-11.712-4.636-18.138-4.788-1.095-.026-1.689-.5-1.886-1.61a540.763 540.763 0 0 0-1.732-9.107c-.167-.85-.407-1.683-.616-2.525l-.451.032c-.26 1.23-.523 2.458-.771 3.692-.54 2.686-1.071 5.378-1.612 8.066-.162.807-.6 1.326-1.484 1.356-4.167.144-8.207.934-12.086 2.476-3.62 1.439-7.377 2.624-10.8 4.436-5.538 2.93-11.243 5.112-17.502 5.696-6.042.562-10.973-1.06-16.598-2.981-.157-.053-.328-.107-.485-.053-.156.054-.26.209-.313.365-.347.987.733 1.847 1.653 2.34 1.688.903 3.387 1.812 5.212 2.387 4.252 1.341 9.856 2.033 14.294 1.385 7.345-1.075 14.02-4.199 20.819-6.97 3.639-1.483 7.406-2.65 11.126-3.931.289-.099.659.036.99.062-.042.322-.016.672-.136.96-1.785 4.259-.664 7.548 3.424 9.703.723.383 1.118.843 1.313 1.452v33.273h6.369V30.447c.165-.63.564-1.064 1.34-1.419 3.653-1.664 5.562-5.945 3.352-9.796-.176-.308-.266-.667-.494-1.25.622.098.996.103 1.334.22 3.318 1.146 6.661 2.24 9.945 3.483 4.98 1.884 9.879 3.987 14.888 5.791 4.833 1.74 10.012 2.1 15.072 1.327 3.428-.524 10.773-1.52 12.99-4.587.282-.39.486-.953.187-1.333m-5.195 64.445h-45.338c1.219 9.632 7.192 18.107 17.577 20.527 13.699 3.189 26.818-6.868 27.76-20.527" fill="#d02125"/><path d="M146.048 71.795c5.253-11.52 10.627-22.988 15.967-34.468.636-1.367 1.329-2.708 2.321-4.72 1.345 3 2.363 5.321 3.423 7.621 4.848 10.513 9.745 21.003 14.532 31.543.942 2.073 2.226 2.638 4.746 1.768L166.54 28.803c-1.423-.256-2.824-.572-4.168-1l-21.028 45.746c2.49.899 3.74.36 4.704-1.754m44.413 7.672a1 1 0 0 0-.256-.296c-.209-.162-.48-.252-.782-.304a4.145 4.145 0 0 0-.474-.052 7.602 7.602 0 0 0-.494-.015h-.488c-7.944.004-15.891.001-23.838.001v-.012h-23.842c-.632 0-1.284-.036-1.775.17-.365.153-.643.441-.744.977a2.92 2.92 0 0 0-.044.627c.012.445.095.782.237 1.041.114.203.271.345.446.46.157.101.325.184.518.233.412.106.894.116 1.395.116 15.893-.016 31.788.01 47.681-.11.907-.006 2.462-1.087 2.578-1.842.033-.217.037-.406.016-.572a1.134 1.134 0 0 0-.134-.422m-70.781 7.861H74.344c1.22 9.632 7.192 18.107 17.578 20.527 13.698 3.189 26.817-6.868 27.76-20.527" fill="#d02125"/></svg>