<svg viewBox="0 0 297 197.9" xmlns="http://www.w3.org/2000/svg"><g fill="#fff"><path d="m2 194.18a9.5 9.5 0 0 0 7.5 3.72h69.15a9.49 9.49 0 0 0 9.17-7l13.76-50.9h45c14.81 0 30.69-10.77 36.15-24.52l9.41-23.67h47.16a9.52 9.52 0 0 0 6.79-2.81l17.74-18.11h6.38a9.49 9.49 0 0 0 9-6.49l17.3-51.9a9.51 9.51 0 0 0 -9-12.5h-245.7a9.49 9.49 0 0 0 -9.24 7.28l-10.83 45.09-18.41 24.19a9.5 9.5 0 0 0 7.57 15.26h14.88l-25.45 94.1a9.51 9.51 0 0 0 1.67 8.26zm233.31-121.36h-205.25l8-10.54a9.65 9.65 0 0 0 1.67-3.53l9.57-39.75h225l-11 32.86h-3.52a9.53 9.53 0 0 0 -6.79 2.85zm-128.59 48.18 7.9-29.19h6.92c.6 6.09 4.67 12.84 12.33 20.49a7.6 7.6 0 1 0 10.75-10.74c-4.84-4.84-6.73-8-7.48-9.75h34.51l-6.65 16.66c-2.58 6.53-11.4 12.53-18.47 12.53zm-84.81 57.9 23.56-87.08h49.46l-23.55 87.08z"/><path d="m62.94 26.49a7.12 7.12 0 0 1 9.51 3.33l10.75 22.33a7.12 7.12 0 1 1 -12.84 6.18l-10.75-22.33a7.12 7.12 0 0 1 3.33-9.51z"/><path d="m94.24 26.49a7.12 7.12 0 0 1 9.51 3.33l10.75 22.33a7.12 7.12 0 0 1 -3.33 9.51 7 7 0 0 1 -3.08.71 7.14 7.14 0 0 1 -6.43-4l-10.75-22.37a7.14 7.14 0 0 1 3.33-9.51z"/></g></svg>