<svg viewBox="0 0 297 247.45" xmlns="http://www.w3.org/2000/svg"><g fill="#fff"><path d="m44.54 147.52a38.8 38.8 0 0 0 -10.81 27.93 39.36 39.36 0 0 0 39.1 38.25h.89a39.1 39.1 0 0 0 38.21-40 39.36 39.36 0 0 0 -40-38.24 38.75 38.75 0 0 0 -27.39 12.06zm28.28 7.48a19.71 19.71 0 0 1 19.56 19.15 19.55 19.55 0 0 1 -19.1 20 19.69 19.69 0 0 1 -20-19.15 19.55 19.55 0 0 1 19.09-20z"/><path d="m223.26 135a39.1 39.1 0 0 0 -38.2 40 39.36 39.36 0 0 0 39.1 38.25h.9a39.1 39.1 0 0 0 38.2-40 39.34 39.34 0 0 0 -40-38.25zm15 52.67a19.38 19.38 0 0 1 -13.69 6 19.72 19.72 0 0 1 -20-19.15 19.55 19.55 0 0 1 19.09-20h.46a19.71 19.71 0 0 1 19.55 19.15 19.45 19.45 0 0 1 -5.37 13.98z"/><path d="m268.85 116.55 4.15-22.35a9.78 9.78 0 0 0 -7.83-11.39l-4.1-.76a26.22 26.22 0 0 0 2.63-8.25 28.1 28.1 0 0 0 -4.7-19.8l-7.42-11a27.92 27.92 0 0 0 -19.39-12.12 27.92 27.92 0 0 0 -15.67-18.31l-12-5.41a28.34 28.34 0 0 0 -11.71-2.53 27.09 27.09 0 0 0 -11.36 2.48 28.12 28.12 0 0 0 -18.9-7.11h-13.2a28.09 28.09 0 0 0 -18.85 7.15 27.09 27.09 0 0 0 -11.36-2.48 28.3 28.3 0 0 0 -11.71 2.53l-12 5.42a27.86 27.86 0 0 0 -15.7 18.25 27.84 27.84 0 0 0 -19.96 12.13l-7.42 11a28.05 28.05 0 0 0 -4.67 19.8 26.84 26.84 0 0 0 1.64 6.11h-1.44a9.77 9.77 0 0 0 -9.55 10l.46 20.16a72.91 72.91 0 0 0 34.05 137.38h1.66a72.83 72.83 0 0 0 71.14-74.52 73.43 73.43 0 0 0 -42-64.39l-.47-20.06a9.76 9.76 0 0 0 -5.7-8.65l5.19-7.62a28.55 28.55 0 0 0 4.28-9.86 28.57 28.57 0 0 0 9.76-2.45l12-5.42a28.68 28.68 0 0 0 8.14-5.48 28.5 28.5 0 0 0 12.51 2.87h13.21a28.5 28.5 0 0 0 12.51-2.87 28.68 28.68 0 0 0 8.15 5.51l12 5.42a28.65 28.65 0 0 0 9.19 2.4 28.38 28.38 0 0 0 4.3 9.91l3 4.41a9.8 9.8 0 0 0 -3.25 5.64l-4 21.69a72.91 72.91 0 0 0 19.78 143.02 72.92 72.92 0 0 0 44.61-130.47zm-33.43-62.55 7.42 11a8.54 8.54 0 0 1 1.48 6 5.81 5.81 0 0 1 -2.32 4 5.29 5.29 0 0 1 -3 .89 8.29 8.29 0 0 1 -6.64-3.79l-7.46-10.91a9.06 9.06 0 0 1 -1.53-4.31 25 25 0 0 0 6-6.58 8.39 8.39 0 0 1 6.05 3.7zm-166.9 11 7.42-11a8.3 8.3 0 0 1 6.61-3.78 24.86 24.86 0 0 0 5.45 6.24 8.84 8.84 0 0 1 -1.55 4.73l-7.45 10.91a8.32 8.32 0 0 1 -6.64 3.78 5.18 5.18 0 0 1 -3-.89 5.83 5.83 0 0 1 -2.36-3.99 8.6 8.6 0 0 1 1.52-6zm57.56 108.42a53.26 53.26 0 0 1 -52 54.51h-1.24a53.64 53.64 0 0 1 -53.27-52.14 53 53 0 0 1 32.89-50.48 9.79 9.79 0 0 0 6-9.26l-.36-16.78 25.71-.58.39 16.65a9.77 9.77 0 0 0 6.48 9 53.67 53.67 0 0 1 35.4 49.03zm-5.41-136.79-12 5.41a8.87 8.87 0 0 1 -3.69.81 8.72 8.72 0 0 1 -1-.06 24.59 24.59 0 0 0 -5.4-6.36 8.26 8.26 0 0 1 4.89-6l12-5.42a9 9 0 0 1 3.69-.8 7.91 7.91 0 0 1 2.87.52v1.16a24.5 24.5 0 0 0 1.57 8.66 9.09 9.09 0 0 1 -2.93 2.08zm28.68-4.36a9 9 0 0 1 -4.2-1 24.71 24.71 0 0 0 -1.37-9.73 8.79 8.79 0 0 1 5.57-1.94h13.21a8.74 8.74 0 0 1 5.56 1.94 24.88 24.88 0 0 0 -1.36 9.73 9 9 0 0 1 -4.2 1zm41.89 4.36a9.09 9.09 0 0 1 -2.88-2.06 24.5 24.5 0 0 0 1.57-8.66c0-.39 0-.77 0-1.16a7.87 7.87 0 0 1 2.87-.52 9 9 0 0 1 3.69.8l12 5.42a8.37 8.37 0 0 1 4.82 5.6 24.66 24.66 0 0 0 -5.9 6.77c-.15 0-.29 0-.45 0a8.86 8.86 0 0 1 -3.68-.81zm85.29 147.21a53.27 53.27 0 1 1 -61.86-62.22 9.79 9.79 0 0 0 7.87-7.84l3.4-18.36 26 4.83-3.49 18.89a9.79 9.79 0 0 0 4.34 10 53.17 53.17 0 0 1 23.74 54.7z"/><path d="m71.61 120a6.83 6.83 0 1 0 -4.84-2 6.88 6.88 0 0 0 4.84 2z"/><path d="m235.89 118a6.85 6.85 0 1 0 -4.84-2 6.9 6.9 0 0 0 4.84 2z"/></g></svg>