<svg viewBox="0 0 228.31 297" xmlns="http://www.w3.org/2000/svg"><g fill="#fff"><path d="m193.88 247-3.35-.69a8.72 8.72 0 0 1 -5.16-3.79l-1.72-3.08c-.93-1.69-2.48-1.69-3.42 0l-1.71 3.08a8.72 8.72 0 0 1 -5.16 3.79l-3.36.69c-1.9.38-2.39 1.87-1.09 3.31l2.35 2.59a8.94 8.94 0 0 1 2 6.11l-.41 3.53c-.22 1.93 1 2.83 2.8 2l3.12-1.45a8.71 8.71 0 0 1 6.39 0l3.12 1.45c1.76.81 3-.09 2.8-2l-.41-3.53a8.89 8.89 0 0 1 2-6.11l2.35-2.59c1.24-1.42.76-2.91-1.14-3.31z"/><ellipse cx="114.15" cy="41.49" rx="8.77" ry="8.78"/><path d="m80 179.51c0 .06.4 5.65-.42 9a7.84 7.84 0 0 0 -4.08 0l-28.66 7.68a7.86 7.86 0 0 0 -5.33 4.83c-.71.25-1.42.5-2.13.77-25.75 10.06-39.38 27.72-39.38 51.12v34.21a9.89 9.89 0 0 0 9.88 9.88h208.55a9.88 9.88 0 0 0 9.88-9.88v-34.21c0-23.4-13.63-41.06-39.41-51.08l-2.15-.8a7.91 7.91 0 0 0 -5.32-4.81l-28.66-7.67a7.8 7.8 0 0 0 -4.07 0c-.81-3.33-.45-8.85-.44-9a94.16 94.16 0 0 0 15.38-24.18c9.79-2 18.19-10.87 21.19-22.92a33.71 33.71 0 0 0 -1-20.42 25 25 0 0 0 -4.76-7.68 28.27 28.27 0 0 0 5.81-16.73 9.86 9.86 0 0 0 -2.64-6.71v-7.52c13-9.85 16.22-21.83 14.59-30.3-1.4-7.3-6.57-12.72-13.16-13.82-22.47-3.74-32.97-9.91-41.67-24.45a9.89 9.89 0 0 0 -8.46-4.82h-38.77a9.89 9.89 0 0 0 -8.49 4.82c-8.67 14.54-19.17 20.71-41.6 24.45-6.59 1.1-11.76 6.53-13.16 13.82-1.64 8.47 1.55 20.45 14.59 30.3v7.49a9.86 9.86 0 0 0 -2.64 6.71 28.27 28.27 0 0 0 5.81 16.73 25 25 0 0 0 -4.76 7.68 33.71 33.71 0 0 0 -1 20.42c3 12.05 11.4 20.91 21.19 22.92a94.79 94.79 0 0 0 15.29 24.17zm73 25.49 12.67 3.39-23.34 29.17-11.08-11.67zm-38.82-9a41.24 41.24 0 0 0 15.33-2.91 31.91 31.91 0 0 0 3.65 9.06l-18.55 17.75c-.16.16-.31.32-.45.49-.15-.17-.3-.33-.46-.49l-18.52-17.78a31.91 31.91 0 0 0 3.65-9.06 41.21 41.21 0 0 0 15.33 2.94zm-3 72.77a7.7 7.7 0 0 0 5.91 0l2.38 8.49h-10.65zm3-19.28-8.5-9.66 8.31-8.75c.07-.07.13-.15.2-.23a2.11 2.11 0 0 0 .19.23l8.31 8.75zm-52.41-167.13v-9c0-1.08 1.2-2 2.67-2h99.43c1.47 0 2.67.89 2.67 2v9c0 1.09-1.2 2-2.67 2h-99.43c-1.44-.02-2.67-.91-2.67-2zm8 15.12h88.79c-8.32 6.6-24.09 12.54-44.4 12.54s-36.08-5.94-44.4-12.54zm30.4-77.71h28c10.92 15.76 25.33 24 49.2 28.47-.42 2.21-2.42 6.11-8 10h-110.44c-5.55-3.93-7.55-7.83-8-10 23.89-4.43 38.31-12.71 49.23-28.47zm-29 116a9.93 9.93 0 0 0 -2.29.26c-1.18 0-4.77-2.49-6.23-8.36a14.07 14.07 0 0 1 .24-8.34 4 4 0 0 1 1.27-1.9c12.8 7.65 30.48 12.39 50 12.39s37.2-4.75 50-12.4a4.3 4.3 0 0 1 1.26 1.91 14.08 14.08 0 0 1 .23 8.34c-1.46 5.87-5 8.35-6.31 8.35a9.88 9.88 0 0 0 -11.43 5.93c-6.31 15.64-17.28 34.29-33.74 34.29s-27.44-18.65-33.75-34.29a9.94 9.94 0 0 0 -9.24-6.21zm4.16 69.23 21.75 20.89-11.08 11.65-23.34-29.17zm-55.56 47.91c0-19.37 16-29.17 31-34.11l28.57 35.7a7.94 7.94 0 0 0 5.84 3h.33a7.91 7.91 0 0 0 5.72-2.5l3.49-3.68 3.74 4.24-6.06 21.67h-72.63zm188.77 24.32h-72.63l-6.06-21.67 3.74-4.24 3.49 3.68a7.91 7.91 0 0 0 5.74 2.47h.33a7.94 7.94 0 0 0 5.84-3l28.57-35.7c15 4.94 31 14.75 31 34.11v24.32z"/></g></svg>