<?xml version="1.0" encoding="iso-8859-1"?>
<!-- Generator: Adobe Illustrator 18.0.0, SVG Export Plug-In . SVG Version: 6.00 Build 0)  -->
<!DOCTYPE svg PUBLIC "-//W3C//DTD SVG 1.1//EN" "http://www.w3.org/Graphics/SVG/1.1/DTD/svg11.dtd">
<svg version="1.1" id="Capa_1" xmlns="http://www.w3.org/2000/svg" xmlns:xlink="http://www.w3.org/1999/xlink" x="0px" y="0px"
	 viewBox="0 0 297 297" style="enable-background:new 0 0 297 297;" xml:space="preserve">
<g>
	<path d="M1.956,243.725c1.797,2.349,4.586,3.727,7.545,3.727h69.15c4.291,0,8.051-2.877,9.17-7.02l13.758-50.868h44.955
		c14.803,0,30.682-10.774,36.15-24.528l9.41-23.669h47.207c2.555,0,4.998-1.026,6.785-2.85l17.744-18.104h6.381
		c4.09,0,7.719-2.616,9.012-6.496l17.289-51.862c0.965-2.896,0.48-6.082-1.307-8.559c-1.785-2.479-4.652-3.946-7.707-3.946H41.806
		c-4.391,0-8.213,3.012-9.236,7.282l-10.826,45.086L3.335,126.113c-2.186,2.874-2.555,6.738-0.951,9.973
		c1.605,3.234,4.902,5.28,8.514,5.28h14.885L0.329,235.47C-0.442,238.325,0.159,241.377,1.956,243.725z M235.312,122.365H30.062
		l8.014-10.534c0.797-1.05,1.367-2.253,1.676-3.534l9.545-39.747h225.023l-10.955,32.862h-3.525c-2.553,0-4.998,1.026-6.785,2.85
		L235.312,122.365z M106.72,170.563l7.896-29.196h6.92c0.608,6.09,4.678,12.841,12.336,20.497c1.482,1.484,3.428,2.227,5.373,2.227
		s3.891-0.742,5.375-2.227c2.967-2.969,2.967-7.781-0.002-10.749c-4.84-4.84-6.732-8.011-7.477-9.748h34.506l-6.619,16.648
		c-2.611,6.566-11.426,12.548-18.494,12.548H106.72z M21.911,228.45l23.555-87.084h49.467L71.38,228.45H21.911z"/>
	<path d="M62.939,76.04c3.545-1.707,7.803-0.218,9.51,3.329l10.75,22.33c1.707,3.545,0.217,7.804-3.328,9.511
		c-0.998,0.479-2.049,0.707-3.086,0.707c-2.652,0-5.197-1.487-6.426-4.037l-10.75-22.329C57.901,82.006,59.392,77.747,62.939,76.04z
		"/>
	<path d="M94.245,76.04c3.543-1.707,7.801-0.218,9.51,3.329l10.75,22.33c1.707,3.545,0.217,7.804-3.33,9.511
		c-0.996,0.479-2.049,0.707-3.086,0.707c-2.65,0-5.197-1.487-6.424-4.037l-10.75-22.329C89.208,82.006,90.698,77.747,94.245,76.04z"
		/>
</g>
<g>
</g>
<g>
</g>
<g>
</g>
<g>
</g>
<g>
</g>
<g>
</g>
<g>
</g>
<g>
</g>
<g>
</g>
<g>
</g>
<g>
</g>
<g>
</g>
<g>
</g>
<g>
</g>
<g>
</g>
</svg>
