<?xml version="1.0" encoding="iso-8859-1"?>
<!-- Generator: Adobe Illustrator 18.0.0, SVG Export Plug-In . SVG Version: 6.00 Build 0)  -->
<!DOCTYPE svg PUBLIC "-//W3C//DTD SVG 1.1//EN" "http://www.w3.org/Graphics/SVG/1.1/DTD/svg11.dtd">
<svg version="1.1" id="Capa_1" xmlns="http://www.w3.org/2000/svg" xmlns:xlink="http://www.w3.org/1999/xlink" x="0px" y="0px"
	 viewBox="0 0 297 297" style="enable-background:new 0 0 297 297;" xml:space="preserve">
<g>
	<path d="M44.539,172.292c-7.215,7.558-11.055,17.476-10.813,27.929c0.487,21.095,18.031,38.255,39.107,38.255
		c0.296,0,0.595-0.004,0.892-0.011c10.447-0.233,20.176-4.527,27.393-12.088c7.213-7.559,11.054-17.476,10.813-27.928
		c-0.494-21.392-18.518-38.716-39.999-38.246C61.484,160.437,51.755,164.73,44.539,172.292z M72.825,179.75
		c10.538,0,19.31,8.591,19.555,19.149c0.12,5.23-1.801,10.193-5.41,13.975c-3.605,3.777-8.465,5.923-13.685,6.04
		c-10.738,0.249-19.76-8.436-20.008-19.145c-0.121-5.231,1.801-10.195,5.409-13.976c3.605-3.777,8.466-5.922,13.686-6.04
		C72.523,179.751,72.675,179.75,72.825,179.75z"/>
	<path d="M223.262,159.754c-10.447,0.233-20.176,4.527-27.393,12.088c-7.214,7.559-11.054,17.476-10.813,27.93
		c0.488,21.094,18.032,38.255,39.107,38.255c0.296,0,0.596-0.004,0.893-0.011c10.447-0.234,20.175-4.527,27.393-12.089
		c7.213-7.558,11.054-17.476,10.814-27.927C262.768,176.608,244.74,159.25,223.262,159.754z M238.301,212.424
		c-3.605,3.777-8.465,5.923-13.686,6.041c-10.716,0.223-19.761-8.436-20.009-19.145c-0.12-5.23,1.802-10.194,5.41-13.975
		c3.604-3.778,8.465-5.923,13.686-6.04c0.151-0.003,0.304-0.005,0.454-0.005c10.538,0,19.309,8.591,19.555,19.149
		C243.831,203.681,241.909,208.644,238.301,212.424z"/>
	<path d="M268.847,141.328l4.13-22.355c0.979-5.308-2.525-10.406-7.831-11.391l-4.092-0.759c1.299-2.522,2.193-5.293,2.623-8.244
		c1.005-6.903-0.652-13.953-4.666-19.852l-7.426-10.915c-4.587-6.741-11.665-11.111-19.393-12.115
		c-2.007-7.735-7.565-14.658-15.672-18.307l-12.038-5.416c-3.729-1.678-7.669-2.528-11.71-2.528c-4.029,0-7.896,0.881-11.366,2.476
		c-4.913-4.423-11.551-7.147-18.851-7.147h-13.201c-7.3,0-13.937,2.724-18.851,7.147c-3.471-1.595-7.337-2.476-11.366-2.476
		c-4.042,0-7.981,0.851-11.71,2.528L95.39,37.391c-8.086,3.639-13.636,10.537-15.657,18.25c-7.946,0.858-15.26,5.267-19.959,12.172
		l-7.427,10.915c-4.014,5.898-5.67,12.948-4.665,19.852c0.31,2.137,0.867,4.179,1.641,6.101l-1.44,0.033
		c-2.594,0.058-5.059,1.145-6.85,3.021c-1.792,1.876-2.766,4.388-2.705,6.98l0.467,20.162
		c-10.741,5.672-19.877,13.929-26.673,24.166C3.86,171.487-0.325,185.989,0.02,200.979c0.442,19.171,8.239,37.105,21.952,50.5
		c13.694,13.376,31.759,20.743,50.866,20.745c0.002,0,0.004,0,0.006,0c0.555,0,1.102-0.006,1.659-0.02
		c19.45-0.438,37.562-8.431,50.998-22.508c13.433-14.075,20.583-32.544,20.135-52.007c-0.639-27.693-17.261-52.775-42.036-64.398
		l-0.467-20.053c-0.09-3.862-2.411-7.139-5.698-8.652l5.186-7.621c2.104-3.094,3.52-6.445,4.281-9.861
		c3.356-0.229,6.63-1.047,9.754-2.453l12.038-5.416c3.111-1.399,5.843-3.286,8.148-5.511c3.752,1.833,8.006,2.876,12.513,2.876
		h13.201c4.507,0,8.76-1.043,12.513-2.876c2.306,2.225,5.037,4.111,8.148,5.511l12.037,5.416c2.95,1.327,6.033,2.128,9.191,2.408
		c0.76,3.432,2.179,6.801,4.293,9.907l3.002,4.413c-1.686,1.446-2.84,3.432-3.249,5.637l-4.015,21.686
		c-26.398,7.455-46.867,29.572-51.923,56.896c-7.31,39.515,18.86,77.628,58.339,84.959c4.405,0.817,8.896,1.233,13.346,1.233
		c0.003,0,0.002,0,0.004,0c35.049,0,65.129-25.074,71.521-59.621C300.777,185.072,290.289,157.965,268.847,141.328z M235.416,78.813
		l7.427,10.914c1.254,1.844,1.779,3.986,1.481,6.035c-0.145,1.002-0.643,2.856-2.336,4.008c-0.867,0.591-1.883,0.89-3.015,0.89
		c-2.51,0-5.055-1.45-6.642-3.783l-7.426-10.911c-0.917-1.348-1.419-2.855-1.533-4.312c2.359-1.82,4.389-4.036,5.968-6.582
		C231.661,75.27,233.948,76.656,235.416,78.813z M68.516,89.727l7.426-10.914c1.58-2.321,4.107-3.766,6.604-3.778
		c1.464,2.368,3.313,4.455,5.459,6.202c-0.043,1.583-0.549,3.251-1.554,4.728l-7.425,10.912c-1.587,2.333-4.132,3.783-6.64,3.783
		h-0.001c-1.134,0-2.148-0.299-3.016-0.89c-1.693-1.152-2.19-3.006-2.337-4.008C66.736,93.714,67.262,91.571,68.516,89.727z
		 M126.085,198.142c0.328,14.242-4.904,27.756-14.732,38.053c-9.826,10.294-23.068,16.14-37.29,16.46
		c-0.41,0.009-0.815,0.014-1.224,0.014c-28.708-0.003-52.604-23.393-53.269-52.14c-0.51-22.188,12.399-42.005,32.887-50.487
		c3.73-1.544,6.128-5.224,6.035-9.261l-0.388-16.737l25.705-0.581l0.388,16.654c0.094,4.048,2.674,7.619,6.486,8.98
		C111.352,156.478,125.578,176.187,126.085,198.142z M120.668,61.401l-12.037,5.416c-1.189,0.535-2.43,0.807-3.686,0.807
		c-0.347,0-0.688-0.022-1.02-0.063c-1.41-2.373-3.216-4.526-5.406-6.352c0.376-2.394,2.195-4.77,4.896-5.984l12.037-5.416
		c1.19-0.534,2.43-0.806,3.686-0.806c1.027,0,2.002,0.187,2.869,0.526c-0.019,0.385-0.031,0.771-0.031,1.159
		c0,3.034,0.559,5.947,1.576,8.656C122.771,60.176,121.799,60.893,120.668,61.401z M149.355,57.044
		c-1.536,0-2.983-0.386-4.208-1.037c0.196-3.248-0.237-6.546-1.362-9.727c1.432-1.192,3.414-1.947,5.57-1.947h13.201
		c2.156,0,4.139,0.755,5.569,1.947c-1.125,3.182-1.559,6.479-1.361,9.727c-1.226,0.651-2.672,1.037-4.208,1.037H149.355z
		 M191.242,61.401c-1.131-0.509-2.104-1.226-2.884-2.057c1.018-2.709,1.576-5.622,1.576-8.656c0-0.389-0.014-0.774-0.031-1.159
		c0.867-0.34,1.842-0.526,2.869-0.526c1.256,0,2.496,0.271,3.686,0.806l12.037,5.416c2.556,1.15,4.318,3.341,4.818,5.6
		c-2.415,1.915-4.39,4.217-5.902,6.773c-0.148,0.008-0.295,0.027-0.446,0.027c-1.256,0-2.496-0.271-3.686-0.807L191.242,61.401z
		 M276.534,208.611c-4.679,25.278-26.671,43.624-52.295,43.623c-3.257,0-6.546-0.305-9.776-0.904
		c-28.884-5.364-48.028-33.255-42.68-62.174c4.008-21.654,21.243-38.84,42.889-42.763c3.998-0.725,7.131-3.847,7.871-7.842
		l3.397-18.356l26.03,4.831l-3.491,18.893c-0.722,3.91,0.995,7.868,4.344,10.012C271.197,165.693,280.503,187.156,276.534,208.611z"
		/>
	<path d="M71.614,144.727c1.809,0,3.568-0.733,4.841-2.005c1.28-1.271,2.004-3.041,2.004-4.84c0-1.8-0.724-3.57-2.004-4.841
		c-1.272-1.271-3.032-2.005-4.841-2.005c-1.799,0-3.56,0.733-4.841,2.005c-1.271,1.27-2.004,3.031-2.004,4.841
		c0,1.799,0.733,3.568,2.004,4.84C68.055,143.993,69.816,144.727,71.614,144.727z"/>
	<path d="M235.89,142.77c1.799,0,3.568-0.733,4.841-2.004c1.28-1.273,2.004-3.042,2.004-4.841s-0.724-3.569-2.004-4.841
		c-1.272-1.27-3.042-2.004-4.841-2.004c-1.799,0-3.56,0.733-4.841,2.004c-1.271,1.271-2.004,3.042-2.004,4.841
		s0.733,3.568,2.004,4.841C232.33,142.037,234.091,142.77,235.89,142.77z"/>
</g>
<g>
</g>
<g>
</g>
<g>
</g>
<g>
</g>
<g>
</g>
<g>
</g>
<g>
</g>
<g>
</g>
<g>
</g>
<g>
</g>
<g>
</g>
<g>
</g>
<g>
</g>
<g>
</g>
<g>
</g>
</svg>
