<svg xmlns="http://www.w3.org/2000/svg" viewBox="0 0 660.89 464.28"><defs><style>.cls-1{fill:#fff;}</style></defs><title>tji-logo-white</title><g id="Layer_2" data-name="Layer 2"><g id="Layer_1-2" data-name="Layer 1"><path class="cls-1" d="M179.9,114.3H144.4v0H108.9c-1.88,0-3.9-.21-3.82,2.64.07,2.65,1.88,2.75,3.87,2.75,23.66,0,47.33,0,71-.16,1.36,0,3.67-1.62,3.84-2.74C184.18,114.18,181.79,114.3,179.9,114.3Z"/><path class="cls-1" d="M144.4,114.31h35.5c1.88,0,4.28-.12,3.88,2.48-.17,1.12-2.48,2.73-3.84,2.74-23.66.18-47.33.14-71,.16-2,0-3.8-.1-3.87-2.75-.08-2.85,1.94-2.64,3.82-2.64h35.5Z"/><path class="cls-1" d="M88.61,375.37q-21.85,2.31-38.36-2.68a64.72,64.72,0,0,1-27.62-16.11A72.06,72.06,0,0,1,5.75,329.15Q0,312.84,0,292.51V127.94H50.64v50.25H86.31v44.89H50.64V292.9q0,20.72,9.39,29.15t28.58,7.29Z"/><path class="cls-1" d="M173.39,399.92q0,19.57-5.75,32.81a48.38,48.38,0,0,1-16.31,20.71q-10.54,7.49-25.51,9.78t-33.76-.38V418q15.35,1.52,23-3.65t7.67-20.14v-216h50.64Z"/><path class="cls-1" d="M268.53,375.76H217.89V178.19h50.64Z"/><path class="cls-1" d="M278,124H210.47c1.82,14.34,10.71,27,26.18,30.56A33.89,33.89,0,0,0,278,124Z"/><path class="cls-1" d="M285.72,34.07a1,1,0,0,0-.36-.29,2.73,2.73,0,0,0-2.14.37c-11.52,5.86-25,5.47-37,1.16-6.47-2.33-12.58-5.64-18.86-8.46-8.61-3.87-17.44-6.9-27-7.13a2.56,2.56,0,0,1-2.81-2.4c-.81-4.53-1.69-9-2.58-13.56C194.7,2.5,194.34,1.25,194,0l-.67.05c-.38,1.83-.78,3.66-1.15,5.5-.8,4-1.59,8-2.4,12a2.19,2.19,0,0,1-2.2,2,53.32,53.32,0,0,0-18,3.68c-5.39,2.15-11,3.91-16.08,6.61-8.25,4.36-16.74,7.61-26.06,8.48-9,.84-16.35-1.58-24.72-4.44a1.13,1.13,0,0,0-.72-.08.84.84,0,0,0-.47.55c-.51,1.47,1.09,2.75,2.47,3.48a45.91,45.91,0,0,0,7.75,3.55c6.34,2,14.68,3,21.29,2.07a67.28,67.28,0,0,0,8.63-1.89l-31.23,67.92c3.71,1.34,5.57.54,7-2.61,7.82-17.15,15.82-34.23,23.77-51.32.95-2,2-4,3.46-7,2,4.47,3.52,7.92,5.1,11.35,7.21,15.65,14.5,31.27,21.63,47,1.4,3.09,3.32,3.93,7.07,2.64L146.67,40c5.89-2,11.62-4.56,17.4-6.92,5.42-2.21,11-4,16.57-5.85a3.94,3.94,0,0,1,1.47.09,5.55,5.55,0,0,1-.2,1.43c-2.66,6.34-1,11.24,5.09,14.45a3.6,3.6,0,0,1,2,2.16V94.92h9.48V45.34a3.14,3.14,0,0,1,2-2.12c5.44-2.48,8.28-8.85,5-14.59a14.72,14.72,0,0,1-.73-1.86,14.79,14.79,0,0,1,2,.33c4.94,1.71,9.92,3.34,14.81,5.19,6.9,2.61,13.7,5.49,20.63,8-10.48,22.8-21.4,46.86-31.66,69.18,3.71,1.34,5.57.54,7-2.61,7.82-17.15,15.82-34.23,23.77-51.32.95-2,2-4,3.46-7,2,4.47,3.52,7.92,5.1,11.35,7.22,15.65,14.51,31.27,21.63,47,1.41,3.09,3.32,3.93,7.07,2.64-10-21.74-20.68-45.25-30.82-67.39a46.63,46.63,0,0,0,18.42.77c5.1-.78,16-2.26,19.34-6.82C285.86,35.47,286.17,34.64,285.72,34.07Z"/><path class="cls-1" d="M283.6,115.29a1.61,1.61,0,0,0-.38-.44,2.66,2.66,0,0,0-1.17-.45c-.22,0-.46-.06-.7-.08l-.74,0H244.39v0h-35.5a7.18,7.18,0,0,0-2.64.25,1.79,1.79,0,0,0-1.11,1.46,4.29,4.29,0,0,0-.07.93,3.44,3.44,0,0,0,.36,1.55,2,2,0,0,0,.66.68,2.57,2.57,0,0,0,.77.35,8.6,8.6,0,0,0,2.08.17c23.67,0,47.33,0,71-.16,1.35,0,3.67-1.62,3.84-2.74a3.16,3.16,0,0,0,0-.86A1.73,1.73,0,0,0,283.6,115.29Z"/><path class="cls-1" d="M178.21,124H110.7c1.81,14.34,10.71,27,26.17,30.56A33.9,33.9,0,0,0,178.21,124Z"/><path class="cls-1" d="M346.34,186.74H332.66v37.09h-11V186.74H308.24v-8.49h38.1Z"/><path class="cls-1" d="M382.45,204.49H365.17v10.89h20.41v8.45h-31.4V178.25h31.46v8.49H365.17v9.61h17.28Z"/><path class="cls-1" d="M413.29,193.4l7.45-15.15h12.55l-12.74,22.6,13.09,23H421l-7.67-15.43-7.67,15.43H393l13.06-23-12.71-22.6h12.52Z"/><path class="cls-1" d="M467.4,215.32H452.34l-2.63,8.51H438l16.72-45.58H465l16.84,45.58h-11.8ZM455,206.83h9.8L459.85,191Z"/><path class="cls-1" d="M508.87,211.72a4.54,4.54,0,0,0-1.7-3.76,21.47,21.47,0,0,0-6-2.79,56.72,56.72,0,0,1-7-2.78q-8.87-4.35-8.86-12a10.7,10.7,0,0,1,2.2-6.68,14.24,14.24,0,0,1,6.25-4.51,24.2,24.2,0,0,1,9.08-1.62,21.22,21.22,0,0,1,8.81,1.76,14,14,0,0,1,6.06,5,13,13,0,0,1,2.16,7.41h-11a5.52,5.52,0,0,0-1.7-4.32,6.63,6.63,0,0,0-4.62-1.54,7.49,7.49,0,0,0-4.65,1.3,3.82,3.82,0,0,0,.17,6.48,23.65,23.65,0,0,0,6.61,2.94,40.72,40.72,0,0,1,7.76,3.28q7.39,4.25,7.39,11.74a11.13,11.13,0,0,1-4.51,9.39c-3,2.27-7.13,3.41-12.36,3.41a24.49,24.49,0,0,1-10-2,15.08,15.08,0,0,1-6.76-5.45,14.19,14.19,0,0,1-2.27-8h11q0,3.66,1.89,5.4c1.27,1.16,3.32,1.73,6.16,1.73a7.08,7.08,0,0,0,4.3-1.17A3.87,3.87,0,0,0,508.87,211.72Z"/><path class="cls-1" d="M327.24,255.66h11v31.28a14.89,14.89,0,0,1-2,7.76,13.75,13.75,0,0,1-5.63,5.29,17.29,17.29,0,0,1-8.07,1.88q-7.44,0-11.58-3.76t-4.13-10.64h11a7.52,7.52,0,0,0,1.08,4.54,4.26,4.26,0,0,0,3.61,1.41,4.1,4.1,0,0,0,3.53-1.71,8.05,8.05,0,0,0,1.23-4.77Z"/><path class="cls-1" d="M387.1,255.66V285.5a17.16,17.16,0,0,1-2.16,8.78,14,14,0,0,1-6.19,5.65,21.94,21.94,0,0,1-9.55,1.94q-8.32,0-13.12-4.32t-4.88-11.83V255.66h11.05v30.27q.18,7.49,6.95,7.49a6.73,6.73,0,0,0,5.16-1.88q1.75-1.87,1.76-6.11V255.66Z"/><path class="cls-1" d="M420.68,289.13a4.52,4.52,0,0,0-1.71-3.76,21.1,21.1,0,0,0-6-2.79,57.59,57.59,0,0,1-7-2.78q-8.85-4.35-8.86-12a10.76,10.76,0,0,1,2.21-6.69,14.19,14.19,0,0,1,6.25-4.5,24.2,24.2,0,0,1,9.08-1.62,21.26,21.26,0,0,1,8.81,1.76,14,14,0,0,1,6.06,5,13,13,0,0,1,2.16,7.41h-11a5.53,5.53,0,0,0-1.71-4.33,6.63,6.63,0,0,0-4.61-1.53,7.45,7.45,0,0,0-4.65,1.3,3.82,3.82,0,0,0,.17,6.48,23.56,23.56,0,0,0,6.6,2.94,41.54,41.54,0,0,1,7.77,3.27q7.38,4.26,7.39,11.74a11.16,11.16,0,0,1-4.51,9.4q-4.52,3.41-12.37,3.41a24.44,24.44,0,0,1-10-2,15,15,0,0,1-6.76-5.45,14.11,14.11,0,0,1-2.27-8h11q0,3.66,1.89,5.4c1.26,1.16,3.31,1.73,6.15,1.73a7.11,7.11,0,0,0,4.31-1.17A3.87,3.87,0,0,0,420.68,289.13Z"/><path class="cls-1" d="M473.26,264.14H459.58v37.1h-11v-37.1H435.16v-8.48h38.1Z"/><path class="cls-1" d="M492.81,301.24h-11V255.66h11Z"/><path class="cls-1" d="M540.54,285.81a16.72,16.72,0,0,1-2.57,8.4,15.5,15.5,0,0,1-6.59,5.66,22.53,22.53,0,0,1-9.69,2q-9,0-14.15-5.86t-5.17-16.53v-2.25a27.48,27.48,0,0,1,2.34-11.72,17.68,17.68,0,0,1,6.71-7.77A18.77,18.77,0,0,1,521.56,255q8.3,0,13.34,4.37t5.73,12h-11q-.12-4.17-2.1-6t-6-1.82a6.59,6.59,0,0,0-6,3.07c-1.27,2.05-1.94,5.31-2,9.8v3.22q0,7.31,1.83,10.43t6.31,3.13a8.43,8.43,0,0,0,5.79-1.78q2-1.78,2.13-5.67Z"/><path class="cls-1" d="M577.21,281.9H559.93v10.89h20.41v8.45h-31.4V255.66H580.4v8.48H559.93v9.62h17.28Z"/><path class="cls-1" d="M320.79,377.09h-11V331.5h11Z"/><path class="cls-1" d="M371.9,377.09H361l-16.15-28.37v28.37h-11V331.5h11l16.12,28.37V331.5h11Z"/><path class="cls-1" d="M397.89,377.09h-11V331.5h11Z"/><path class="cls-1" d="M446.63,340H433v37.1H422V340H408.53V331.5h38.1Z"/><path class="cls-1" d="M466.18,377.09H455.23V331.5h10.95Z"/><path class="cls-1" d="M503.48,368.57H488.42l-2.63,8.52H474.05l16.72-45.59H501.1L518,377.09H506.14Zm-12.43-8.48h9.8l-4.91-15.81Z"/><path class="cls-1" d="M553.47,340H539.79v37.1h-11V340H515.37V331.5h38.1Z"/><path class="cls-1" d="M573,377.09h-11V331.5h11Z"/><path class="cls-1" d="M601.55,364.69l9.08-33.19H622.9l-15.34,45.59h-12L580.32,331.5H592.5Z"/><path class="cls-1" d="M657.7,357.74H640.42v10.89h20.41v8.46h-31.4V331.5h31.46V340H640.42v9.61H657.7Z"/></g></g></svg>