<svg xmlns="http://www.w3.org/2000/svg" viewBox="0 0 512 415.89"><defs><style>.cls-1{fill:#64b8dd;}</style></defs><title>tji-twitter-logo-blue</title><g id="Layer_2" data-name="Layer 2"><g id="Layer_1-2" data-name="Layer 1"><g id="Layer_1-2-2" data-name="Layer 1-2"><path class="cls-1" d="M459.37,103.67c.33,4.55.33,9.1.33,13.65,0,138.72-105.59,298.56-298.56,298.56A296.48,296.48,0,0,1,0,368.77,216.65,216.65,0,0,0,25.34,370a210.13,210.13,0,0,0,130.27-44.8A105.12,105.12,0,0,1,57.5,252.47a131.59,131.59,0,0,0,19.82,1.62,110.41,110.41,0,0,0,27.61-3.57,105,105,0,0,1-84.14-103v-1.3a105.59,105.59,0,0,0,47.43,13.32A105.07,105.07,0,0,1,35.74,19.21,298.23,298.23,0,0,0,252.1,129a118.76,118.76,0,0,1-2.6-24A105,105,0,0,1,431.1,33.18,206.21,206.21,0,0,0,497.7,7.84a104.56,104.56,0,0,1-46.13,57.82A209.88,209.88,0,0,0,512,49.42,225.25,225.25,0,0,1,459.37,103.67Z"/></g></g></g></svg>