<?xml version="1.0" encoding="UTF-8" standalone="no"?>
<svg
   xmlns:dc="http://purl.org/dc/elements/1.1/"
   xmlns:cc="http://creativecommons.org/ns#"
   xmlns:rdf="http://www.w3.org/1999/02/22-rdf-syntax-ns#"
   xmlns:svg="http://www.w3.org/2000/svg"
   xmlns="http://www.w3.org/2000/svg"
   viewBox="0 0 487.58667 309.77332"
   height="309.77332"
   width="487.58667"
   xml:space="preserve"
   id="svg2"
   version="1.1"><metadata
     id="metadata8"><rdf:RDF><cc:Work
         rdf:about=""><dc:format>image/svg+xml</dc:format><dc:type
           rdf:resource="http://purl.org/dc/dcmitype/StillImage" /></cc:Work></rdf:RDF></metadata><defs
     id="defs6" /><g
     transform="matrix(1.3333333,0,0,-1.3333333,0,309.77333)"
     id="g10"><g
       transform="scale(0.1)"
       id="g12"><path
         id="path14"
         style="fill:#295998;fill-opacity:1;fill-rule:nonzero;stroke:none"
         d="m 1590.27,1232.71 h 31.08 v 190.67 h -57.98 v -38.42 h -30.38 v 67.06 h 211.63 v -67.06 h -30.39 v 38.42 h -57.96 v -190.67 h 31.09 v -27.25 h -97.09 v 27.25" /><path
         id="path16"
         style="fill:#295998;fill-opacity:1;fill-rule:nonzero;stroke:none"
         d="m 1790.75,1232.71 h 30.75 v 192.41 h -30.75 v 26.9 h 178.46 v -57.29 h -30.39 v 28.65 h -82.41 v -79.28 h 87.3 v -28.62 h -87.3 v -81.37 h 88.36 v 29.68 h 30.38 v -58.33 h -184.4 v 27.25" /><path
         id="path18"
         style="fill:#295998;fill-opacity:1;fill-rule:nonzero;stroke:none"
         d="m 2020.94,1232.71 h 23.05 l 63.56,97.43 -62.51,94.98 h -22.7 v 26.9 h 85.91 v -26.9 h -26.19 l 40.84,-64.6 c 3.85,-5.24 6.3,-9.77 6.3,-9.77 h 0.68 c 0,0 2.11,4.53 5.95,9.77 l 39.46,64.6 h -25.49 v 26.9 h 83.46 v -26.9 h -23.05 l -63.9,-98.13 62.86,-94.28 h 23.39 v -27.25 h -85.9 v 27.25 h 25.83 l -41.2,64.25 c -3.84,5.59 -6.28,10.14 -6.28,10.14 h -0.7 c -0.35,0 -2.09,-4.55 -5.6,-10.14 l -39.79,-64.25 h 25.83 v -27.25 h -83.81 v 27.25" /><path
         id="path20"
         style="fill:#295998;fill-opacity:1;fill-rule:nonzero;stroke:none"
         d="m 2422.22,1315.48 -30.03,85.55 c -3.48,10.12 -4.18,18.86 -4.18,18.86 h -1.06 c 0,0 -1.05,-8.74 -4.18,-18.86 l -30.38,-85.55 z m -156.78,-82.78 h 23.74 l 78.58,219.31 h 39.46 l 78.56,-219.31 h 23.74 v -27.23 h -85.54 v 27.23 h 26.18 l -19.2,54.85 h -87.31 l -19.21,-54.85 h 26.55 v -27.23 h -85.55 v 27.23" /><path
         id="path22"
         style="fill:#295998;fill-opacity:1;fill-rule:nonzero;stroke:none"
         d="m 2581.51,1279.51 v -18.16 c 0,-18.16 23.4,-29 49.24,-29 28.28,0 48.9,13.29 48.9,37.72 0,28.64 -28.99,38.07 -59.37,49.94 -32.49,12.24 -65.65,26.2 -65.65,69.85 0,46.43 37.35,66.34 78.92,66.34 37.03,0 74.73,-13.97 74.73,-40.86 v -28.97 h -32.47 v 17.11 c 0,14.31 -22,22 -42.26,22 -24.1,0 -43.3,-11.18 -43.3,-33.88 0,-26.2 24.79,-34.93 52.38,-45.39 36.32,-13.63 72.28,-27.6 72.28,-73.35 0,-47.13 -38.41,-71.59 -84.16,-71.59 -38.4,0 -81.36,17.11 -81.36,52.39 v 25.85 h 32.12" /><path
         id="path24"
         style="fill:#295998;fill-opacity:1;fill-rule:nonzero;stroke:none"
         d="m 1531.25,910.102 h 33.88 v -10.813 c 0,-24.129 10.82,-45.418 38.06,-45.418 19.56,0 37.36,11.867 37.36,45.418 v 147.341 h -35.61 v 26.89 h 98.13 v -26.89 h -27.6 V 897.172 c 0,-52.731 -37.02,-74.383 -72.64,-74.383 -35.26,0 -71.58,20.262 -71.58,72.973 v 14.34" /><path
         id="path26"
         style="fill:#295998;fill-opacity:1;fill-rule:nonzero;stroke:none"
         d="m 1776.08,1046.64 h -31.07 v 26.89 h 97.07 v -26.89 h -31.07 V 919.172 c 0,-16.063 3.14,-30.031 9.42,-40.16 10.13,-16.051 29.34,-25.153 53.09,-25.153 23.39,0 42.95,9.102 53.07,25.871 5.95,10.102 9.43,23.739 9.43,39.79 v 127.12 h -31.08 v 26.89 h 96.73 v -26.89 h -30.72 v -127.8 c 0,-23.41 -6.3,-44.711 -17.12,-60.078 -16.76,-23.731 -46.8,-35.973 -80.31,-35.973 -34.93,0 -64.26,13.27 -81.02,35.973 -11.53,15.707 -16.42,36.34 -16.42,60.078 v 127.8" /><path
         id="path28"
         style="fill:#295998;fill-opacity:1;fill-rule:nonzero;stroke:none"
         d="m 2080.66,901.012 v -18.16 c 0,-18.153 23.38,-28.993 49.22,-28.993 28.31,0 48.9,13.289 48.9,37.723 0,28.637 -28.98,38.066 -59.36,49.938 -32.48,12.23 -65.66,26.199 -65.66,69.86 0,46.43 37.37,66.33 78.94,66.33 37.01,0 74.71,-13.97 74.71,-40.87 v -28.96 h -32.47 v 17.11 c 0,14.32 -22,22 -42.24,22 -24.11,0 -43.32,-11.18 -43.32,-33.88 0,-26.2 24.79,-34.919 52.39,-45.391 36.33,-13.629 72.28,-27.59 72.28,-73.36 0,-47.121 -38.42,-71.558 -84.17,-71.558 -38.39,0 -81.35,17.09 -81.35,52.371 v 25.84 h 32.13" /><path
         id="path30"
         style="fill:#295998;fill-opacity:1;fill-rule:nonzero;stroke:none"
         d="m 2316.76,854.219 h 31.07 v 190.671 h -57.97 v -38.42 h -30.39 v 67.05 h 211.64 v -67.05 h -30.38 v 38.42 h -57.96 V 854.219 h 31.07 v -27.231 h -97.08 v 27.231" /><path
         id="path32"
         style="fill:#295998;fill-opacity:1;fill-rule:nonzero;stroke:none"
         d="M 2517.26,854.219 H 2548 v 192.411 h -30.74 v 26.89 h 96.73 v -26.89 h -31.08 V 854.219 h 31.08 v -27.231 h -96.73 v 27.231" /><path
         id="path34"
         style="fill:#295998;fill-opacity:1;fill-rule:nonzero;stroke:none"
         d="m 2790.36,1077.71 c 29.69,0 93.94,-10.81 93.94,-48.89 v -30.019 h -32.47 v 19.209 c 0,21.64 -37.36,29.66 -60.06,29.66 -52.73,0 -91.5,-38.77 -91.5,-94.619 0,-58.313 39.79,-99.879 93.59,-99.879 17.45,0 61.45,6.277 61.45,28.988 v 19.199 h 32.49 V 871.34 c 0,-36.309 -61.82,-48.551 -96.03,-48.551 -74.05,0 -127.48,56.93 -127.48,128.852 0,72.289 54.82,126.069 126.07,126.069" /><path
         id="path36"
         style="fill:#295998;fill-opacity:1;fill-rule:nonzero;stroke:none"
         d="m 2943.01,854.219 h 30.74 v 192.411 h -30.74 v 26.89 h 178.45 v -57.26 h -30.38 v 28.63 h -82.42 v -79.281 h 87.31 v -28.621 h -87.31 v -81.367 h 88.37 v 29.68 h 30.37 v -58.313 h -184.39 v 27.231" /><path
         id="path38"
         style="fill:#295998;fill-opacity:1;fill-rule:nonzero;stroke:none"
         d="m 1541.37,491.262 h 30.74 v 192.429 h -30.74 v 26.879 h 96.73 v -26.879 h -31.07 V 491.262 h 31.07 v -27.25 h -96.73 v 27.25" /><path
         id="path40"
         style="fill:#295998;fill-opacity:1;fill-rule:nonzero;stroke:none"
         d="M 1692.27,491.262 H 1723 v 192.429 h -30.73 v 26.879 h 65.3 l 121.16,-176.711 c 4.21,-6.988 8.39,-17.8 8.39,-17.8 h 1.06 c 0,0 -1.76,12.222 -1.76,19.902 v 147.73 h -31.43 v 26.879 h 97.43 v -26.879 h -31.07 V 464.012 h -34.23 l -121.17,176.707 c -4.54,6.98 -8.38,17.82 -8.38,17.82 h -1.05 c 0,0 1.75,-12.238 1.4,-19.91 V 491.262 h 31.77 v -27.25 h -97.42 v 27.25" /><path
         id="path42"
         style="fill:#295998;fill-opacity:1;fill-rule:nonzero;stroke:none"
         d="m 2002.42,491.262 h 30.75 v 192.429 h -30.75 v 26.879 h 96.75 V 683.691 H 2068.1 V 491.262 h 31.07 v -27.25 h -96.75 v 27.25" /><path
         id="path44"
         style="fill:#295998;fill-opacity:1;fill-rule:nonzero;stroke:none"
         d="m 2202.2,491.262 h 31.08 V 681.93 h -57.96 v -38.418 h -30.39 v 67.058 h 211.62 v -67.058 h -30.37 V 681.93 H 2268.2 V 491.262 h 31.09 v -27.25 h -97.09 v 27.25" /><path
         id="path46"
         style="fill:#295998;fill-opacity:1;fill-rule:nonzero;stroke:none"
         d="m 2402.7,491.262 h 30.74 v 192.429 h -30.74 v 26.879 h 96.74 v -26.879 h -31.09 V 491.262 h 31.09 v -27.25 h -96.74 v 27.25" /><path
         id="path48"
         style="fill:#295998;fill-opacity:1;fill-rule:nonzero;stroke:none"
         d="m 2695.71,574.012 -30.03,85.57 c -3.48,10.137 -4.18,18.859 -4.18,18.859 h -1.06 c 0,0 -1.04,-8.722 -4.19,-18.859 l -30.38,-85.57 z M 2538.93,491.25 h 23.74 l 78.56,219.32 h 39.47 l 78.58,-219.32 h 23.75 v -27.23 h -85.57 v 27.23 h 26.2 l -19.22,54.832 h -87.28 l -19.23,-54.832 h 26.54 v -27.23 h -85.54 v 27.23" /><path
         id="path50"
         style="fill:#295998;fill-opacity:1;fill-rule:nonzero;stroke:none"
         d="m 2854.32,491.262 h 31.05 V 681.93 h -57.97 v -38.418 h -30.37 v 67.058 h 211.62 v -67.058 h -30.38 V 681.93 H 2920.3 V 491.262 h 31.09 v -27.25 h -97.07 v 27.25" /><path
         id="path52"
         style="fill:#295998;fill-opacity:1;fill-rule:nonzero;stroke:none"
         d="m 3054.8,491.262 h 30.74 v 192.429 h -30.74 v 26.879 h 96.74 v -26.879 h -31.07 V 491.262 h 31.07 v -27.25 h -96.74 v 27.25" /><path
         id="path54"
         style="fill:#295998;fill-opacity:1;fill-rule:nonzero;stroke:none"
         d="m 3215.46,683.691 h -24.08 v 26.879 h 88 v -26.879 h -27.24 l 55.17,-162.39 c 2.8,-8.762 4.21,-19.219 4.21,-19.219 h 1.03 c 0,0 1.39,10.457 4.19,19.219 l 55.19,162.39 h -27.25 v 26.879 h 88 v -26.879 h -24.45 l -77.88,-219.679 h -37.01 l -77.88,219.679" /><path
         id="path56"
         style="fill:#295998;fill-opacity:1;fill-rule:nonzero;stroke:none"
         d="m 3472.54,491.262 h 30.74 v 192.429 h -30.74 v 26.879 h 178.45 v -57.289 h -30.38 v 28.649 h -82.42 v -79.27 h 87.29 v -28.648 h -87.29 v -81.364 h 88.35 v 29.684 h 30.38 v -58.32 h -184.38 v 27.25" /><path
         id="path58"
         style="fill:#d02125;fill-opacity:1;fill-rule:nonzero;stroke:none"
         d="m 591.711,1784.84 c 39.394,86.4 79.691,172.41 119.746,258.51 4.773,10.25 9.969,20.31 17.41,35.4 10.094,-22.5 17.735,-39.91 25.68,-57.16 36.348,-78.85 73.078,-157.52 108.984,-236.57 7.071,-15.55 16.696,-19.79 35.602,-13.26 -53.594,116.94 -106.836,233.15 -161.387,352.25 -7.519,-2.89 -15.113,-5.4 -22.828,-7.55 -53.652,-116.7 -105.934,-230.42 -158.492,-344.78 18.679,-6.74 28.058,-2.7 35.285,13.16" /><path
         id="path60"
         style="fill:#d02125;fill-opacity:1;fill-rule:nonzero;stroke:none"
         d="m 906.113,1732.3 c -59.597,-0.03 -119.199,-0.01 -178.797,-0.01 v 0.09 H 548.504 c -9.484,0 -19.609,1.05 -19.231,-13.29 0.368,-13.36 9.485,-13.89 19.489,-13.88 119.183,0.12 238.398,-0.08 357.597,0.83 6.801,0.04 18.481,8.15 19.336,13.81 1.977,13.06 -10.062,12.45 -19.582,12.45" /><path
         id="path62"
         style="fill:#d02125;fill-opacity:1;fill-rule:nonzero;stroke:none"
         d="M 714.914,2116.45 C 661.27,1999.77 608.992,1886.02 556.422,1771.69 c 18.676,-6.76 28.051,-2.72 35.277,13.14 39.403,86.4 79.699,172.42 119.766,258.53 4.773,10.23 9.957,20.29 17.398,35.4 10.11,-22.52 17.731,-39.92 25.688,-57.17 36.347,-78.85 73.082,-157.52 108.972,-236.56 7.075,-15.57 16.707,-19.79 35.598,-13.26 -53.574,116.92 -106.816,233.14 -161.387,352.23 -7.5,-2.87 -15.089,-5.38 -22.82,-7.55" /><path
         id="path64"
         style="fill:#d02125;fill-opacity:1;fill-rule:nonzero;stroke:none"
         d="m 727.316,1732.28 c 59.598,0 119.2,-0.01 178.797,0.01 9.516,0.02 21.559,0.61 19.578,-12.45 -0.855,-5.66 -12.535,-13.76 -19.332,-13.82 -119.199,-0.89 -238.414,-0.7 -357.597,-0.82 -10.004,0 -19.121,0.53 -19.489,13.87 -0.378,14.37 9.743,13.3 19.223,13.3 h 178.82 v -0.09" /><path
         id="path66"
         style="fill:#295998;fill-opacity:1;fill-rule:nonzero;stroke:none"
         d="m 446.336,447.832 c -73.43,-7.73 -137.863,-3.203 -193.223,13.527 C 197.723,478.07 151.34,505.129 114,542.5 76.6133,579.852 48.3008,625.898 28.9727,680.66 9.64844,735.398 0,796.898 0,865.191 V 1694.12 H 255.051 V 1441 H 434.746 V 1214.93 H 255.051 V 863.262 c 0,-69.571 15.746,-118.524 47.324,-146.864 31.563,-28.339 79.543,-40.566 143.961,-36.707 V 447.832" /><path
         id="path68"
         style="fill:#295998;fill-opacity:1;fill-rule:nonzero;stroke:none"
         d="m 873.355,324.18 c 0,-65.7 -9.664,-120.77 -29,-165.231 C 825.055,114.512 797.656,79.7383 762.238,54.6289 726.805,29.4805 683.992,13.0703 633.738,5.33203 583.516,-2.37891 526.813,-1.73047 463.707,7.26172 V 233.352 c 51.52,-5.133 90.152,0.968 115.938,18.367 25.765,17.371 38.648,51.191 38.648,101.422 V 1441 H 873.355 V 324.18" /><path
         id="path70"
         style="fill:#295998;fill-opacity:1;fill-rule:nonzero;stroke:none"
         d="M 1352.53,445.898 H 1097.48 V 1441 h 255.05 V 445.898" /><path
         id="path72"
         style="fill:#d02125;fill-opacity:1;fill-rule:nonzero;stroke:none"
         d="m 1439.14,2151.68 c -0.52,0.65 -1.13,1.12 -1.79,1.45 -3.04,1.43 -7.45,-0.16 -10.79,-1.85 -58.02,-29.48 -126.16,-27.53 -186.43,-5.85 -32.57,11.72 -63.34,28.4 -95.02,42.62 -43.33,19.49 -87.84,34.77 -136.04,35.91 -8.21,0.2 -12.664,3.75 -14.14,12.08 -4.075,22.81 -8.528,45.55 -12.996,68.3 -1.25,6.37 -3.047,12.62 -4.618,18.94 l -3.382,-0.24 c -1.942,-9.23 -3.922,-18.44 -5.782,-27.69 -4.054,-20.15 -8.035,-40.34 -12.089,-60.5 -1.219,-6.05 -4.5,-9.94 -11.129,-10.17 -31.254,-1.08 -61.555,-7 -90.645,-18.57 -27.152,-10.79 -55.328,-19.68 -81.008,-33.27 -41.531,-21.97 -84.316,-38.34 -131.258,-42.72 -45.312,-4.21 -82.3,7.95 -124.488,22.36 -1.176,0.4 -2.457,0.8 -3.633,0.4 -1.172,-0.41 -1.949,-1.57 -2.347,-2.74 -2.602,-7.4 5.492,-13.85 12.398,-17.55 12.656,-6.77 25.399,-13.59 39.09,-17.9 31.887,-10.06 73.918,-15.25 107.203,-10.39 55.09,8.06 105.156,31.49 156.141,52.27 27.293,11.13 55.547,19.88 83.449,29.49 2.164,0.74 4.937,-0.27 7.422,-0.47 -0.317,-2.41 -0.121,-5.04 -1.02,-7.2 -13.386,-31.94 -4.984,-56.61 25.676,-72.77 5.426,-2.87 8.387,-6.32 9.852,-10.89 v -249.55 h 47.765 v 249.77 c 1.239,4.72 4.229,7.98 10.049,10.64 27.4,12.48 41.72,44.59 25.14,73.47 -1.32,2.31 -1.99,5 -3.7,9.38 4.66,-0.74 7.47,-0.78 10,-1.65 24.89,-8.6 49.96,-16.8 74.59,-26.13 37.35,-14.13 74.09,-29.9 111.66,-43.43 36.25,-13.05 75.09,-15.75 113.04,-9.95 25.71,3.93 80.8,11.4 97.42,34.4 2.12,2.92 3.65,7.15 1.41,10" /><path
         id="path74"
         style="fill:#d02125;fill-opacity:1;fill-rule:nonzero;stroke:none"
         d="m 1400.17,1668.34 h -340.03 c 9.14,-72.24 53.94,-135.8 131.83,-153.95 102.74,-23.92 201.13,51.51 208.2,153.95" /><path
         id="path76"
         style="fill:#d02125;fill-opacity:1;fill-rule:nonzero;stroke:none"
         d="m 1095.36,1784.84 c 39.4,86.4 79.7,172.41 119.75,258.51 4.77,10.25 9.97,20.31 17.41,35.4 10.09,-22.5 17.72,-39.91 25.67,-57.16 36.36,-78.85 73.09,-157.52 108.99,-236.57 7.07,-15.55 16.7,-19.79 35.6,-13.26 -51.07,111.44 -101.85,222.28 -153.73,335.52 -10.67,1.92 -21.18,4.29 -31.26,7.5 -53.36,-116.1 -105.4,-229.3 -157.71,-343.1 18.68,-6.74 28.05,-2.7 35.28,13.16" /><path
         id="path78"
         style="fill:#d02125;fill-opacity:1;fill-rule:nonzero;stroke:none"
         d="m 1428.46,1727.3 c -0.5,0.9 -1.16,1.61 -1.92,2.22 -1.57,1.21 -3.6,1.89 -5.87,2.28 -1.15,0.2 -2.33,0.32 -3.55,0.39 -1.22,0.08 -2.47,0.11 -3.71,0.11 -1.24,0.01 -2.45,0 -3.66,0 -59.58,-0.03 -119.18,-0.01 -178.78,-0.01 v 0.09 h -178.82 c -4.74,0 -9.63,0.27 -13.31,-1.27 -2.74,-1.15 -4.82,-3.31 -5.58,-7.33 -0.26,-1.36 -0.38,-2.9 -0.33,-4.7 0.09,-3.34 0.71,-5.87 1.78,-7.81 0.85,-1.52 2.03,-2.59 3.34,-3.45 1.18,-0.76 2.44,-1.38 3.89,-1.75 3.09,-0.79 6.7,-0.87 10.46,-0.87 119.2,0.12 238.41,-0.07 357.61,0.83 6.8,0.04 18.46,8.15 19.33,13.81 0.25,1.63 0.28,3.05 0.12,4.29 -0.15,1.23 -0.5,2.28 -1,3.17" /><path
         id="path80"
         style="fill:#d02125;fill-opacity:1;fill-rule:nonzero;stroke:none"
         d="M 897.605,1668.34 H 557.57 c 9.149,-72.24 53.946,-135.8 131.84,-153.95 102.735,-23.92 201.125,51.51 208.195,153.95" /></g></g></svg>