<svg xmlns="http://www.w3.org/2000/svg" viewBox="0 0 448 448"><defs><style>.cls-1{fill:#64b8dd;}</style></defs><title>tji-fb-logo-blue</title><g id="Layer_2" data-name="Layer 2"><g id="Layer_1-2" data-name="Layer 1"><g id="Layer_1-2-2" data-name="Layer 1-2"><path class="cls-1" d="M448,24.7V423.2a24.68,24.68,0,0,1-24.68,24.7H309.1V274.5h58.2l8.7-67.6H309V163.7c0-19.6,5.4-32.9,33.5-32.9h35.8V70.3a481.54,481.54,0,0,0-52.2-2.7c-51.6,0-87,31.5-87,89.4v49.9H180.7v67.6h58.4V448H24.7A24.75,24.75,0,0,1,0,423.3V24.7A24.75,24.75,0,0,1,24.7,0H423.2A24.77,24.77,0,0,1,448,24.7Z"/></g></g></g></svg>