<?xml version="1.0" encoding="utf-8"?>
<!-- Generator: Adobe Illustrator 22.0.1, SVG Export Plug-In . SVG Version: 6.00 Build 0)  -->
<svg version="1.1" xmlns="http://www.w3.org/2000/svg" xmlns:xlink="http://www.w3.org/1999/xlink" x="0px" y="0px"
	 viewBox="0 0 978.3 230.3" style="enable-background:new 0 0 978.3 230.3;" xml:space="preserve">
<style type="text/css">
	.st0{fill:#c00000;}
	.st1{clip-path:url(#SVGID_2_);fill:#FFFFFF;}
	.st2{display:none;}
	.st3{display:inline;}
	.st4{clip-path:url(#SVGID_4_);fill:#FFFFFF;}
	.st5{clip-path:url(#SVGID_4_);fill:#c00000;}
	.st6{display:inline;fill:#92C5EB;}
	.st7{display:inline;fill:#c00000;}
	.st8{clip-path:url(#SVGID_6_);fill:#FFFFFF;}
	.st9{clip-path:url(#SVGID_6_);}
</style>
<g id="Layer_1">
	<rect x="0.2" y="0.4" width="237.2" height="229.8"/>
	<rect x="237.4" y="0.4" class="st0" width="740.9" height="229.8"/>
	<g>
		<defs>
			<rect id="SVGID_1_" x="-15" y="-11.4" width="1035.4" height="243.4"/>
		</defs>
		<clipPath id="SVGID_2_">
			<use xlink:href="#SVGID_1_"  style="overflow:visible;"/>
		</clipPath>
		<path class="st1" d="M929.4,61.6v36.7c0,7.2-3.5,10.7-10.9,10.7h-11.9V51.7h12.9C926.2,51.7,929.4,54.9,929.4,61.6 M940.9,119.9
			c9.7-4,15.1-11.4,15.1-26.8V60.4c0-21.6-10.7-32.3-32.3-32.3h-43.7v173.7h26.6v-69.7h11.9c7.7,0,11.2,3.5,11.2,11.2v58.6h26.6
			v-59.1C956.3,129.6,951.8,122.9,940.9,119.9 M803.9,28.1v173.7h59.6v-24.1h-33v-52.4h31.3v-24.1h-31.3V52.2h32.5V28.1H803.9z
			 M752,156.2L736.1,28.1h-26.8l25.6,174h32.5l25.6-174h-25.1L752,156.2z M674.5,61.6v36.7c0,7.2-3.5,10.7-10.9,10.7h-11.9V51.7
			h12.9C671.3,51.7,674.5,54.9,674.5,61.6 M686,119.9c9.7-4,15.1-11.4,15.1-26.8V60.4c0-21.6-10.7-32.3-32.3-32.3h-43.7v173.7h26.6
			v-69.7h11.9c7.7,0,11.2,3.5,11.2,11.2v58.6h26.6v-59.1C701.3,129.6,696.9,122.9,686,119.9 M548.9,28.1v173.7h59.6v-24.1h-33v-52.4
			h31.3v-24.1h-31.3V52.2H608V28.1H548.9z M516.7,112.7l-26.8-19.6c-5-3.5-7.4-6.9-7.4-14.1V59.6c0-6.7,3.2-9.9,9.9-9.9h3.2
			c6.7,0,9.9,3.2,9.9,9.9v30.5h26.1V58.6c0-21.3-10.7-32-32-32h-11.2c-21.6,0-32.3,10.7-32.3,32.3v23.8c0,13.4,3.5,21.6,15.4,30
			l26.8,19.6c5,3.7,7.4,6.9,7.4,14.1v23.8c0,6.7-3.2,9.9-10.2,9.9h-3.5c-6.9,0-10.2-3.2-10.2-9.9v-35.7h-25.8v36.7
			c0,21.3,10.4,32,32,32h11.7c21.6,0,32.3-10.7,32.3-32.3v-28.3C532.1,128.6,528.3,121.2,516.7,112.7 M390.1,124.7h12.2
			c7.4,0,10.9,3.5,10.9,10.9v33c0,6.7-3.2,9.9-9.9,9.9h-13.2V124.7z M412.7,61.4v29.8c0,7.4-3.5,10.9-10.9,10.9h-11.7V51.4h12.7
			C409.5,51.4,412.7,54.7,412.7,61.4 M424.1,112.5c9.7-3.5,14.9-11.2,14.9-26.6V60.4c0-21.6-10.7-32.3-32.3-32.3h-42.9v173.7h43.4
			c21.6,0,32.3-10.7,32.3-32.3v-32C439.5,123.4,434.5,116,424.1,112.5 M319.4,60.1v109.7c0,6.9-3.2,10.2-9.9,10.2H304
			c-6.9,0-10.2-3.2-10.2-10.2V60.1c0-6.9,3.2-10.2,10.2-10.2h5.5C316.1,49.9,319.4,53.2,319.4,60.1 M345.9,171.1V58.9
			c0-21.6-10.7-32.3-32.3-32.3h-14.1c-21.6,0-32.3,10.7-32.3,32.3v112.2c0,21.6,10.7,32.3,32.3,32.3h14.1
			C335.2,203.3,345.9,192.7,345.9,171.1"/>
		<path class="st1" d="M72.1,104.2l0.8-80.1l44.1,0l1.1,33.3l3.6,3.1l3.7,0.4c0,0,0.3,0,1.5-0.1c1.2-0.1,1.2,0.2,1.2,0.2l1.8,3.2
			l1.5,0.2l2.2,0.5c1.9,0.8,0.7,0.6,2.2,0.8c1.5,0.2,2.5,0.4,2.5,0.4c2.1-0.2,2.2,0.2,2.2,0.2l1.8-0.1l2.1-0.5l1.2-0.1l1.3,0.8
			l0.4,1.2l1.3,1.4l1.3,1.1l1.8-0.4l1.8-0.7l1.9,0.5l1.8-0.1l1.8-0.1l1.4,2L162,71l1.1-1.9l1.2-0.7c0,0-1-0.9,1.2-0.1
			c2.2,0.8,2.8,1,2.8,1l1.8-0.1l1.7,1.7l1.3,0.5l1.8-0.7c2.4-1.1,1.2-0.7,2.7-1.4c1.5-0.7,1.8-0.7,1.8-0.7l1.5-0.1l1.4-1.3l1.2-0.1
			l1.9,0.2l1.5,0.2l1.7-1.3l1.9,1.1l1.3,0.5l1.6,1.1c2.2,1.1,2.5,1.1,2.5,1.1s1,0.9,2.5,1.4c1.6,0.5,2.2,0.5,2.2,0.5l1.2,0.2
			c2.8,0.1,1.5-0.1,2.8,0.1c1.2,0.2,2.2,0.2,2.2,0.2l2.8,27.4c0,0,3.3,3.8,3.5,5.9c0.2,2.1,1.1,2.7,1.1,2.7l0.7,1.2l1.4,2.7l0.7,1.2
			l1.5,3.3l-0.2,1.2l0.1,1.8c0,0-2.5,3.9-2,6c0.5,2.1,0.6,4.6,0.6,4.6l0.1,1.5l-1,2.5l-1.2,0.7l-1.1,1.6l1.8,3.6l-2.7,1.4l-1.5,0.1
			c0,0-0.2,1.2-1.4,1.3c-1.2,0.1-2.1,0.5-2.1,0.5l-1.8,0.7c-2.8-0.4-3.1-0.4-3.1-0.4l-1.5-0.2l1.4-2.2l-1.5,0.4l-1.8,0.4l-1.5-0.2
			l0.2,2.4l1,1.8l0.2,2.4l-2.4,1.4l-1.4,1.3l0.1,1.5c0,0-0.5,1.9-7.2,6c-6.8,4.2-5.1,1.9-5.1,1.9l-2.1,0.5l-2.9-1.3l-1.4,1.9
			l-1.9-1.4l-1.2-0.2c0,0-0.9,0.4,0.8,2.4c1.7,2,1.7,2.3,1.7,2.3l-3.2,2.1l-1.3-0.5l-1.3-0.5l0.1,1.2l0.1,1.5l-1.2,0.7l-1.5,1
			l-2.4,0.5c1.7,2,2,2.3,2,2.3l-1.1,1.6l-1.2,1l-2.7,0.5l-1.2,0.1c0,0,1.9,0.2,2,2c0.1,1.8,0.7,1.5,0.7,1.5l-1.1,1.9l-0.7,2.8
			l0.1,1.5l-4.6,0l2.8,1l1.1,2.1c-0.5,2.2-0.4,2.8-0.4,2.8l-1.4,1.3l0.4,1.5c0,0,0,0.3,0.4,1.5c0.4,1.2,0.4,1.8,0.4,1.8l0.4,1.8l2,2
			c0.8,2.7,0.8,3,0.8,3l1,1.5l1,1.2l1.3,1.4l-0.8,1.6l-1.2,0.1l-1.2,0.1l-1.2,0.7l-2.9-1.9l-2.5-1.4l-1.2-0.2l-4.2,0.9l-2.2-0.2
			l-1.6-0.8l-2.2-1.4c-1.6-0.8-2.5-0.7-2.5-0.7l-1.3-0.5l-1.3-0.5l-1.3-1.1l-1.6-0.5l-1.5-0.2l-1.2-0.2c0,0-2.8-8.7-5.2-8.5
			c-2.4,0.2-0.1-2.1-0.1-2.1l-1-1.8l-0.1-1.2l-1.1-2.1l0.2-1.5l-0.1-1.8l-1.6-1.4l-2.6-2l-1-1.2l-0.7-1.8l-1-1.2
			c0,0,0.9,0.2-0.4-1.2c-1.3-1.4-4.8-2.7-4.8-2.7s-0.7-1.8-1.1-3c-0.4-1.2-0.8-2.1-0.8-2.1l-0.7-1.2l-1.1-3.3l-2-2.6l-0.4-1.5
			l-0.4-1.5l-1.1-2.1l-2.3-2l-2.6-2.3l-1.6-1.4c0,0-0.1-1.2-1.4-2c-1.3-0.8-1.6-1.1-1.6-1.1l-1.3-0.5l-0.7-1.5c0,0,0,0.3-1.2,0.4
			c-1.2,0.1-2.8-0.1-2.8-0.1l-1.6-0.5l-2.8-0.4l-1.5,0.1l-1.5-0.2l-1.3-0.8l-1.8,0.1l-0.5,1.6l-1.8,0.7l-1.2,0.1c0,0-0.3,0-1.1,1.6
			s-1.1,2.2-1.1,2.2l-0.5,2.2l-0.5,1.6l-0.5,1.3l-0.8,1.3l-2,1.4c0,0-0.1-2.1-1.2,0.4l-1,2.5l-1.2-0.2l-2.9-1.6l-1.6-1.4l-2.2-1.1
			l-1.3-1.4l-2.2-0.8l-1.3-0.8l-5.1-3.3l-1.9-0.8c0,0,0,0.6-0.7-1.2c-0.7-1.8-0.8-2.4-0.8-2.4l-0.4-1.5l-0.8-2.4l-1.1-2.4l-0.4-1.5
			l-0.8-2.4l-1.3-1.7l-0.1-1.2c0,0-0.6-0.3-1-1.5c-0.4-1.2-1-1.5-1-1.5l-1.6-1.4l-1.9-1.4l-1.3-1.1l-2-1.7l-2.3-2.6l-2.9-1.6l-1.4-2
			l-1.6-1.1l-1.6-0.8l-2-2.3l-0.7-1.5l-0.4-1.2l-1-1.5l-1.9-1.1l-1-1.2l-0.7-1.2L72.1,104.2z"/>
	</g>
</g>
<g id="Layer_2" class="st2">
	<rect x="-22.3" y="-127" class="st3" width="1024" height="500"/>
	<g class="st3">
		<defs>
			<rect id="SVGID_3_" x="-10.5" y="-14.5" width="1042" height="244.9"/>
		</defs>
		<clipPath id="SVGID_4_">
			<use xlink:href="#SVGID_3_"  style="overflow:visible;"/>
		</clipPath>
		<path class="st4" d="M934.2,66.2V105c0,7.6-3.7,11.3-11.6,11.3H910V55.6h13.7C930.8,55.6,934.2,59.1,934.2,66.2 M946.3,127.9
			c10.2-4.2,16-12.1,16-28.4V64.8c0-22.9-11.3-34.2-34.2-34.2h-46.3v184H910v-73.8h12.6c8.1,0,11.8,3.7,11.8,11.8v62h28.1v-62.5
			C962.6,138.2,957.9,131.1,946.3,127.9 M801.2,30.7v184h63.1v-25.5h-35v-55.5h33.1v-25.5h-33.1v-52h34.4V30.7H801.2z M746.3,166.3
			L729.5,30.7h-28.4l27.1,184.2h34.4l27.1-184.2h-26.5L746.3,166.3z M664.3,66.2V105c0,7.6-3.7,11.3-11.6,11.3h-12.6V55.6h13.7
			C660.9,55.6,664.3,59.1,664.3,66.2 M676.4,127.9c10.2-4.2,16-12.1,16-28.4V64.8c0-22.9-11.3-34.2-34.2-34.2H612v184h28.1v-73.8
			h12.6c8.1,0,11.8,3.7,11.8,11.8v62h28.1v-62.5C692.7,138.2,688,131.1,676.4,127.9 M531.4,30.7v184h63.1v-25.5h-35v-55.5h33.1
			v-25.5h-33.1v-52h34.4V30.7H531.4z M497.2,120.3l-28.4-20.8c-5.3-3.7-7.9-7.4-7.9-15V64c0-7.1,3.4-10.5,10.5-10.5h3.4
			c7.1,0,10.5,3.4,10.5,10.5v32.3H513V63c0-22.6-11.3-33.9-33.9-33.9h-11.8c-22.9,0-34.2,11.3-34.2,34.2v25.2
			c0,14.2,3.7,22.9,16.3,31.8l28.4,20.8c5.3,3.9,7.9,7.4,7.9,15v25.2c0,7.1-3.4,10.5-10.8,10.5h-3.7c-7.4,0-10.8-3.4-10.8-10.5
			v-37.8h-27.3v38.9c0,22.6,11,33.9,33.9,33.9h12.4c22.9,0,34.2-11.3,34.2-34.2v-30C513.5,137.1,509.5,129.2,497.2,120.3
			 M363.2,132.9H376c7.9,0,11.6,3.7,11.6,11.6v35c0,7.1-3.4,10.5-10.5,10.5h-13.9V132.9z M387.1,65.9v31.5c0,7.9-3.7,11.6-11.6,11.6
			h-12.4V55.4h13.4C383.7,55.4,387.1,58.8,387.1,65.9 M399.2,120c10.2-3.7,15.8-11.8,15.8-28.1V64.8c0-22.9-11.3-34.2-34.2-34.2
			h-45.5v184h46c22.9,0,34.2-11.3,34.2-34.2v-33.9C415.5,131.6,410.2,123.7,399.2,120 M288.3,64.6v116.2c0,7.4-3.4,10.8-10.5,10.8
			H272c-7.4,0-10.8-3.4-10.8-10.8V64.6c0-7.4,3.4-10.8,10.8-10.8h5.8C284.8,53.8,288.3,57.2,288.3,64.6 M316.4,182V63.3
			c0-22.9-11.3-34.2-34.2-34.2h-15c-22.9,0-34.2,11.3-34.2,34.2V182c0,22.9,11.3,34.2,34.2,34.2h15
			C305.1,216.2,316.4,204.9,316.4,182"/>
		<path class="st5" d="M53.4,111.3l0.9-84.8l46.7,0l1.2,35.3l3.8,3.3l3.9,0.4c0,0,0.3,0,1.6-0.1c1.3-0.1,1.3,0.2,1.3,0.2l1.9,3.4
			l1.6,0.2l2.3,0.5c2,0.8,0.7,0.6,2.3,0.8c1.6,0.2,2.6,0.5,2.6,0.5c2.3-0.2,2.3,0.2,2.3,0.2l1.9-0.1l2.2-0.5l1.3-0.1l1.4,0.9
			l0.4,1.3l1.4,1.5l1.4,1.2l1.9-0.5l1.9-0.8l2,0.5l1.9-0.1l1.9-0.1l1.4,2.2l1.6-0.4l1.2-2l1.2-0.7c0,0-1-0.9,1.3-0.1
			c2.3,0.8,3,1.1,3,1.1l1.9-0.1L159,76l1.3,0.6l1.9-0.8c2.5-1.1,1.2-0.7,2.8-1.5c1.6-0.8,1.9-0.8,1.9-0.8l1.6-0.1l1.5-1.4l1.3-0.1
			l2,0.2l1.6,0.2l1.8-1.4l2,1.2l1.3,0.6l1.7,1.2c2.4,1.1,2.7,1.1,2.7,1.1s1,0.9,2.7,1.4c1.7,0.5,2.3,0.5,2.3,0.5l1.3,0.2
			c2.9,0.1,1.6-0.1,2.9,0.1c1.3,0.2,2.3,0.2,2.3,0.2l3,29c0,0,3.5,4,3.7,6.2c0.2,2.3,1.2,2.8,1.2,2.8l0.7,1.2l1.5,2.8l0.7,1.2
			l1.5,3.5l-0.2,1.3l0.1,1.9c0,0-2.6,4.1-2.2,6.3c0.5,2.2,0.7,4.8,0.7,4.8l0.1,1.6l-1.1,2.7l-1.2,0.7l-1.2,1.7l1.9,3.8l-2.8,1.5
			l-1.6,0.1c0,0-0.2,1.3-1.5,1.4c-1.3,0.1-2.2,0.5-2.2,0.5l-1.9,0.8c-3-0.4-3.3-0.4-3.3-0.4l-1.6-0.2l1.5-2.4l-1.6,0.4l-1.9,0.5
			l-1.6-0.2l0.2,2.6l1.1,1.9l0.2,2.6l-2.5,1.5l-1.5,1.4l0.1,1.6c0,0-0.5,2-7.7,6.4c-7.2,4.4-5.4,2-5.4,2l-2.2,0.5l-3-1.4l-1.5,2.1
			l-2.1-1.5l-1.3-0.2c0,0-0.9,0.4,0.8,2.5c1.8,2.1,1.8,2.5,1.8,2.5l-3.4,2.2l-1.3-0.6l-1.3-0.6l0.1,1.3l0.1,1.6l-1.2,0.7l-1.5,1.1
			l-2.6,0.5c1.8,2.1,2.1,2.4,2.1,2.4l-1.2,1.7l-1.2,1.1l-2.9,0.5l-1.3,0.1c0,0,2,0.2,2.1,2.1c0.1,1.9,0.8,1.6,0.8,1.6l-1.2,2l-0.8,3
			l0.1,1.6l-4.9,0l3,1.1l1.1,2.2c-0.5,2.3-0.4,3-0.4,3l-1.5,1.4l0.4,1.6c0,0,0,0.3,0.4,1.6c0.4,1.3,0.5,1.9,0.5,1.9l0.5,1.9l2.1,2.1
			c0.8,2.9,0.9,3.2,0.9,3.2l1.1,1.5l1.1,1.2l1.4,1.5l-0.9,1.7l-1.3,0.1l-1.3,0.1l-1.2,0.7l-3.1-2.1l-2.7-1.4l-1.3-0.2l-4.5,1
			l-2.3-0.2l-1.7-0.9l-2.4-1.5c-1.7-0.9-2.7-0.8-2.7-0.8L128,218l-1.3-0.6l-1.4-1.2l-1.7-0.5l-1.6-0.2l-1.3-0.2c0,0-2.9-9.2-5.5-9
			c-2.6,0.2-0.2-2.3-0.2-2.3l-1.1-1.9l-0.1-1.3l-1.1-2.2l0.2-1.6l-0.1-1.9l-1.7-1.5l-2.7-2.1l-1.1-1.2l-0.8-1.9l-1.1-1.2
			c0,0,1,0.3-0.4-1.3c-1.4-1.5-5.1-2.9-5.1-2.9s-0.8-1.9-1.2-3.2c-0.4-1.3-0.8-2.2-0.8-2.2l-0.7-1.2l-1.2-3.5l-2.1-2.8l-0.4-1.6
			l-0.4-1.6l-1.1-2.2l-2.4-2.1l-2.8-2.4l-1.7-1.5c0,0-0.1-1.3-1.4-2.2c-1.4-0.9-1.7-1.2-1.7-1.2l-1.3-0.6l-0.8-1.6
			c0,0,0,0.3-1.3,0.4c-1.3,0.1-2.9-0.1-2.9-0.1l-1.7-0.5l-3-0.4l-1.6,0.1l-1.6-0.2l-1.4-0.9l-1.9,0.1l-0.5,1.7l-1.9,0.8l-1.3,0.1
			c0,0-0.3,0-1.2,1.7s-1.1,2.4-1.1,2.4l-0.5,2.3l-0.5,1.7l-0.6,1.3l-0.9,1.4l-2.2,1.4c0,0-0.2-2.3-1.3,0.4l-1.1,2.7l-1.3-0.2l-3-1.7
			l-1.7-1.5l-2.4-1.1l-1.4-1.5l-2.3-0.8l-1.4-0.9l-5.4-3.5l-2-0.8c0,0,0,0.6-0.7-1.2c-0.8-1.9-0.8-2.5-0.8-2.5l-0.4-1.6l-0.8-2.5
			l-1.1-2.5l-0.4-1.6l-0.8-2.5l-1.4-1.8l-0.1-1.3c0,0-0.7-0.3-1.1-1.5c-0.4-1.3-1.1-1.5-1.1-1.5l-1.7-1.5l-2.1-1.5l-1.4-1.2
			l-2.1-1.8l-2.5-2.7l-3-1.7l-1.4-2.2l-1.7-1.2l-1.7-0.9l-2.1-2.4l-0.8-1.6l-0.4-1.3l-1.1-1.5l-2-1.2l-1.1-1.2l-0.7-1.2L53.4,111.3z
			"/>
	</g>
</g>
<g id="Layer_3" class="st2">
	<rect x="-21.9" y="-126.8" class="st6" width="1023" height="500.7"/>
	<rect x="-22.3" y="-127" class="st7" width="1024" height="500"/>
	<g class="st3">
		<defs>
			<rect id="SVGID_5_" x="-10.5" y="-14.5" width="1042" height="244.9"/>
		</defs>
		<clipPath id="SVGID_6_">
			<use xlink:href="#SVGID_5_"  style="overflow:visible;"/>
		</clipPath>
		<path class="st8" d="M934.2,66.2V105c0,7.6-3.7,11.3-11.6,11.3H910V55.6h13.7C930.8,55.6,934.2,59.1,934.2,66.2 M946.3,127.9
			c10.2-4.2,16-12.1,16-28.4V64.8c0-22.9-11.3-34.2-34.2-34.2h-46.3v184H910v-73.8h12.6c8.1,0,11.8,3.7,11.8,11.8v62h28.1v-62.5
			C962.6,138.2,957.9,131.1,946.3,127.9 M801.2,30.7v184h63.1v-25.5h-35v-55.5h33.1v-25.5h-33.1v-52h34.4V30.7H801.2z M746.3,166.3
			L729.5,30.7h-28.4l27.1,184.2h34.4l27.1-184.2h-26.5L746.3,166.3z M664.3,66.2V105c0,7.6-3.7,11.3-11.6,11.3h-12.6V55.6h13.7
			C660.9,55.6,664.3,59.1,664.3,66.2 M676.4,127.9c10.2-4.2,16-12.1,16-28.4V64.8c0-22.9-11.3-34.2-34.2-34.2H612v184h28.1v-73.8
			h12.6c8.1,0,11.8,3.7,11.8,11.8v62h28.1v-62.5C692.7,138.2,688,131.1,676.4,127.9 M531.4,30.7v184h63.1v-25.5h-35v-55.5h33.1
			v-25.5h-33.1v-52h34.4V30.7H531.4z M497.2,120.3l-28.4-20.8c-5.3-3.7-7.9-7.4-7.9-15V64c0-7.1,3.4-10.5,10.5-10.5h3.4
			c7.1,0,10.5,3.4,10.5,10.5v32.3H513V63c0-22.6-11.3-33.9-33.9-33.9h-11.8c-22.9,0-34.2,11.3-34.2,34.2v25.2
			c0,14.2,3.7,22.9,16.3,31.8l28.4,20.8c5.3,3.9,7.9,7.4,7.9,15v25.2c0,7.1-3.4,10.5-10.8,10.5h-3.7c-7.4,0-10.8-3.4-10.8-10.5
			v-37.8h-27.3v38.9c0,22.6,11,33.9,33.9,33.9h12.4c22.9,0,34.2-11.3,34.2-34.2v-30C513.5,137.1,509.5,129.2,497.2,120.3
			 M363.2,132.9H376c7.9,0,11.6,3.7,11.6,11.6v35c0,7.1-3.4,10.5-10.5,10.5h-13.9V132.9z M387.1,65.9v31.5c0,7.9-3.7,11.6-11.6,11.6
			h-12.4V55.4h13.4C383.7,55.4,387.1,58.8,387.1,65.9 M399.2,120c10.2-3.7,15.8-11.8,15.8-28.1V64.8c0-22.9-11.3-34.2-34.2-34.2
			h-45.5v184h46c22.9,0,34.2-11.3,34.2-34.2v-33.9C415.5,131.6,410.2,123.7,399.2,120 M288.3,64.6v116.2c0,7.4-3.4,10.8-10.5,10.8
			H272c-7.4,0-10.8-3.4-10.8-10.8V64.6c0-7.4,3.4-10.8,10.8-10.8h5.8C284.8,53.8,288.3,57.2,288.3,64.6 M316.4,182V63.3
			c0-22.9-11.3-34.2-34.2-34.2h-15c-22.9,0-34.2,11.3-34.2,34.2V182c0,22.9,11.3,34.2,34.2,34.2h15
			C305.1,216.2,316.4,204.9,316.4,182"/>
		<path class="st9" d="M53.4,111.3l0.9-84.8l46.7,0l1.2,35.3l3.8,3.3l3.9,0.4c0,0,0.3,0,1.6-0.1c1.3-0.1,1.3,0.2,1.3,0.2l1.9,3.4
			l1.6,0.2l2.3,0.5c2,0.8,0.7,0.6,2.3,0.8c1.6,0.2,2.6,0.5,2.6,0.5c2.3-0.2,2.3,0.2,2.3,0.2l1.9-0.1l2.2-0.5l1.3-0.1l1.4,0.9
			l0.4,1.3l1.4,1.5l1.4,1.2l1.9-0.5l1.9-0.8l2,0.5l1.9-0.1l1.9-0.1l1.4,2.2l1.6-0.4l1.2-2l1.2-0.7c0,0-1-0.9,1.3-0.1
			c2.3,0.8,3,1.1,3,1.1l1.9-0.1L159,76l1.3,0.6l1.9-0.8c2.5-1.1,1.2-0.7,2.8-1.5c1.6-0.8,1.9-0.8,1.9-0.8l1.6-0.1l1.5-1.4l1.3-0.1
			l2,0.2l1.6,0.2l1.8-1.4l2,1.2l1.3,0.6l1.7,1.2c2.4,1.1,2.7,1.1,2.7,1.1s1,0.9,2.7,1.4c1.7,0.5,2.3,0.5,2.3,0.5l1.3,0.2
			c2.9,0.1,1.6-0.1,2.9,0.1c1.3,0.2,2.3,0.2,2.3,0.2l3,29c0,0,3.5,4,3.7,6.2c0.2,2.3,1.2,2.8,1.2,2.8l0.7,1.2l1.5,2.8l0.7,1.2
			l1.5,3.5l-0.2,1.3l0.1,1.9c0,0-2.6,4.1-2.2,6.3c0.5,2.2,0.7,4.8,0.7,4.8l0.1,1.6l-1.1,2.7l-1.2,0.7l-1.2,1.7l1.9,3.8l-2.8,1.5
			l-1.6,0.1c0,0-0.2,1.3-1.5,1.4c-1.3,0.1-2.2,0.5-2.2,0.5l-1.9,0.8c-3-0.4-3.3-0.4-3.3-0.4l-1.6-0.2l1.5-2.4l-1.6,0.4l-1.9,0.5
			l-1.6-0.2l0.2,2.6l1.1,1.9l0.2,2.6l-2.5,1.5l-1.5,1.4l0.1,1.6c0,0-0.5,2-7.7,6.4c-7.2,4.4-5.4,2-5.4,2l-2.2,0.5l-3-1.4l-1.5,2.1
			l-2.1-1.5l-1.3-0.2c0,0-0.9,0.4,0.8,2.5c1.8,2.1,1.8,2.5,1.8,2.5l-3.4,2.2l-1.3-0.6l-1.3-0.6l0.1,1.3l0.1,1.6l-1.2,0.7l-1.5,1.1
			l-2.6,0.5c1.8,2.1,2.1,2.4,2.1,2.4l-1.2,1.7l-1.2,1.1l-2.9,0.5l-1.3,0.1c0,0,2,0.2,2.1,2.1c0.1,1.9,0.8,1.6,0.8,1.6l-1.2,2l-0.8,3
			l0.1,1.6l-4.9,0l3,1.1l1.1,2.2c-0.5,2.3-0.4,3-0.4,3l-1.5,1.4l0.4,1.6c0,0,0,0.3,0.4,1.6c0.4,1.3,0.5,1.9,0.5,1.9l0.5,1.9l2.1,2.1
			c0.8,2.9,0.9,3.2,0.9,3.2l1.1,1.5l1.1,1.2l1.4,1.5l-0.9,1.7l-1.3,0.1l-1.3,0.1l-1.2,0.7l-3.1-2.1l-2.7-1.4l-1.3-0.2l-4.5,1
			l-2.3-0.2l-1.7-0.9l-2.4-1.5c-1.7-0.9-2.7-0.8-2.7-0.8L128,218l-1.3-0.6l-1.4-1.2l-1.7-0.5l-1.6-0.2l-1.3-0.2c0,0-2.9-9.2-5.5-9
			c-2.6,0.2-0.2-2.3-0.2-2.3l-1.1-1.9l-0.1-1.3l-1.1-2.2l0.2-1.6l-0.1-1.9l-1.7-1.5l-2.7-2.1l-1.1-1.2l-0.8-1.9l-1.1-1.2
			c0,0,1,0.3-0.4-1.3c-1.4-1.5-5.1-2.9-5.1-2.9s-0.8-1.9-1.2-3.2c-0.4-1.3-0.8-2.2-0.8-2.2l-0.7-1.2l-1.2-3.5l-2.1-2.8l-0.4-1.6
			l-0.4-1.6l-1.1-2.2l-2.4-2.1l-2.8-2.4l-1.7-1.5c0,0-0.1-1.3-1.4-2.2c-1.4-0.9-1.7-1.2-1.7-1.2l-1.3-0.6l-0.8-1.6
			c0,0,0,0.3-1.3,0.4c-1.3,0.1-2.9-0.1-2.9-0.1l-1.7-0.5l-3-0.4l-1.6,0.1l-1.6-0.2l-1.4-0.9l-1.9,0.1l-0.5,1.7l-1.9,0.8l-1.3,0.1
			c0,0-0.3,0-1.2,1.7s-1.1,2.4-1.1,2.4l-0.5,2.3l-0.5,1.7l-0.6,1.3l-0.9,1.4l-2.2,1.4c0,0-0.2-2.3-1.3,0.4l-1.1,2.7l-1.3-0.2l-3-1.7
			l-1.7-1.5l-2.4-1.1l-1.4-1.5l-2.3-0.8l-1.4-0.9l-5.4-3.5l-2-0.8c0,0,0,0.6-0.7-1.2c-0.8-1.9-0.8-2.5-0.8-2.5l-0.4-1.6l-0.8-2.5
			l-1.1-2.5l-0.4-1.6l-0.8-2.5l-1.4-1.8l-0.1-1.3c0,0-0.7-0.3-1.1-1.5c-0.4-1.3-1.1-1.5-1.1-1.5l-1.7-1.5l-2.1-1.5l-1.4-1.2
			l-2.1-1.8l-2.5-2.7l-3-1.7l-1.4-2.2l-1.7-1.2l-1.7-0.9l-2.1-2.4l-0.8-1.6l-0.4-1.3l-1.1-1.5l-2-1.2l-1.1-1.2l-0.7-1.2L53.4,111.3z
			"/>
	</g>
</g>
</svg>
